<svg width="64" height="64" viewBox="0 0 64 64" fill="none" xmlns="http://www.w3.org/2000/svg">
<path d="M18.6663 50.6667C21.6119 50.6667 23.9997 48.2789 23.9997 45.3333C23.9997 42.3877 21.6119 40 18.6663 40C15.7208 40 13.333 42.3877 13.333 45.3333C13.333 48.2789 15.7208 50.6667 18.6663 50.6667Z" stroke="#7E22CE" stroke-width="1.5" stroke-miterlimit="1.5" stroke-linecap="round" stroke-linejoin="round"/>
<path d="M45.3333 50.6667C48.2789 50.6667 50.6667 48.2789 50.6667 45.3333C50.6667 42.3877 48.2789 40 45.3333 40C42.3877 40 40 42.3877 40 45.3333C40 48.2789 42.3877 50.6667 45.3333 50.6667Z" stroke="#7E22CE" stroke-width="1.5" stroke-miterlimit="1.5" stroke-linecap="round" stroke-linejoin="round"/>
<path d="M37.333 45.3333V17.6C37.333 16.7163 36.6167 16 35.733 16H6.93301C6.04935 16 5.33301 16.7163 5.33301 17.6V43.7333C5.33301 44.6171 6.04935 45.3333 6.93301 45.3333H12.3997" stroke="#7E22CE" stroke-width="1.5" stroke-linecap="round"/>
<path d="M37.3337 45.333H24.1338" stroke="#7E22CE" stroke-width="1.5" stroke-linecap="round"/>
<path d="M37.333 24H52.2933C52.9255 24 53.4986 24.3724 53.7554 24.9502L58.5285 35.6896C58.6194 35.8944 58.6663 36.1157 58.6663 36.3395V43.7333C58.6663 44.6171 57.9501 45.3333 57.0663 45.3333H51.9997" stroke="#7E22CE" stroke-width="1.5" stroke-linecap="round"/>
<path d="M37.333 45.333H39.9997" stroke="#7E22CE" stroke-width="1.5" stroke-linecap="round"/>
</svg>
