<svg width="44" height="44" viewBox="0 0 44 44" fill="none" xmlns="http://www.w3.org/2000/svg">
<path d="M40.3334 18.3334C40.3174 16.8509 39.8531 15.4079 39.0015 14.1943C38.1499 12.9807 36.9509 12.0532 35.5623 11.5338C34.1736 11.0145 32.6603 10.9275 31.2213 11.2845C29.7823 11.6415 28.4851 12.4256 27.5001 13.5337C26.5484 12.441 25.2931 11.656 23.8939 11.2787C24.5466 2.96638 31.0329 2.20921 31.1668 5.50005C30.6806 5.50005 30.2142 5.6932 29.8704 6.03702C29.5266 6.38083 29.3334 6.84715 29.3334 7.33338C29.3334 7.81961 29.5266 8.28592 29.8704 8.62974C30.2142 8.97356 30.6806 9.16671 31.1668 9.16671C32.1392 9.16671 33.0719 8.7804 33.7595 8.09277C34.4471 7.40514 34.8334 6.47251 34.8334 5.50005C34.2834 -1.51795 25.6338 -1.80945 22.0184 4.69705C20.9514 2.78121 16.8961 -2.01662 14.8593 1.01388C14.7501 1.22978 14.6848 1.46514 14.667 1.70641C14.6493 1.94768 14.6794 2.19008 14.7558 2.41964C14.8321 2.6492 14.9531 2.86138 15.1119 3.04395C15.2706 3.22651 15.4639 3.37586 15.6806 3.48338C18.3573 4.82171 19.8093 7.38655 20.1044 11.2897C18.7073 11.6643 17.4529 12.4453 16.5001 13.5337C15.7375 12.6592 14.7778 11.9787 13.7002 11.5482C12.6227 11.1177 11.4583 10.9497 10.303 11.058C9.14772 11.1663 8.03477 11.5477 7.056 12.1709C6.07724 12.7941 5.26071 13.6412 4.67384 14.6421C4.08696 15.6431 3.74656 16.7693 3.68073 17.9278C3.6149 19.0862 3.82553 20.2437 4.29523 21.3048C4.76494 22.3658 5.48024 23.2999 6.38211 24.0299C7.28398 24.76 8.34655 25.2651 9.48211 25.5035C9.20473 26.4672 9.1287 27.4777 9.25878 28.4721C9.38885 29.4664 9.72225 30.4233 10.2382 31.2832C10.7541 32.1431 11.4416 32.8876 12.2577 33.4703C13.0739 34.053 14.0013 34.4615 14.9821 34.6702C14.6684 35.7579 14.6119 36.9037 14.8169 38.017C15.0219 39.1303 15.483 40.1807 16.1636 41.0853C16.8442 41.9899 17.7257 42.724 18.7386 43.2295C19.7515 43.735 20.8681 43.9981 22.0001 43.9981C23.1322 43.9981 24.2487 43.735 25.2616 43.2295C26.2745 42.724 27.1561 41.9899 27.8367 41.0853C28.5173 40.1807 28.9783 39.1303 29.1833 38.017C29.3883 36.9037 29.3318 35.7579 29.0181 34.6702C29.999 34.4615 30.9263 34.053 31.7425 33.4703C32.5586 32.8876 33.2461 32.1431 33.762 31.2832C34.278 30.4233 34.6114 29.4664 34.7414 28.4721C34.8715 27.4777 34.7955 26.4672 34.5181 25.5035C36.1623 25.1557 37.6371 24.2536 38.6957 22.9484C39.7543 21.6432 40.3325 20.0139 40.3334 18.3334ZM22.0001 14.6667C22.9726 14.6667 23.9052 15.053 24.5928 15.7407C25.2805 16.4283 25.6668 17.3609 25.6668 18.3334C25.6668 19.3058 25.2805 20.2385 24.5928 20.9261C23.9052 21.6137 22.9726 22 22.0001 22C21.0277 22 20.095 21.6137 19.4074 20.9261C18.7198 20.2385 18.3334 19.3058 18.3334 18.3334C18.3334 17.3609 18.7198 16.4283 19.4074 15.7407C20.095 15.053 21.0277 14.6667 22.0001 14.6667ZM7.33345 18.3334C7.33345 17.3609 7.71976 16.4283 8.40739 15.7407C9.09502 15.053 10.0277 14.6667 11.0001 14.6667C11.9726 14.6667 12.9052 15.053 13.5928 15.7407C14.2805 16.4283 14.6668 17.3609 14.6668 18.3334C14.6668 19.3058 14.2805 20.2385 13.5928 20.9261C12.9052 21.6137 11.9726 22 11.0001 22C10.0277 22 9.09502 21.6137 8.40739 20.9261C7.71976 20.2385 7.33345 19.3058 7.33345 18.3334ZM12.8334 27.5C12.8421 26.6211 13.1676 25.7749 13.7501 25.1167C14.8095 24.6799 15.7514 24.0005 16.5001 23.133C17.2514 24.0016 18.1966 24.6812 19.2593 25.1167C19.6441 25.5636 19.9151 26.097 20.0491 26.6713C20.1832 27.2456 20.1762 27.8438 20.029 28.4149C19.8817 28.986 19.5985 29.5129 19.2035 29.9508C18.8084 30.3887 18.3133 30.7245 17.7604 30.9296C17.2074 31.1347 16.6131 31.203 16.028 31.1286C15.443 31.0542 14.8846 30.8394 14.4006 30.5024C13.9166 30.1655 13.5213 29.7165 13.2484 29.1937C12.9755 28.6709 12.8331 28.0898 12.8334 27.5ZM22.0001 40.3334C21.3023 40.3265 20.6209 40.1206 20.0361 39.7399C19.4512 39.3592 18.9872 38.8195 18.6984 38.1842C18.4096 37.5489 18.3081 36.8444 18.4059 36.1534C18.5036 35.4624 18.7965 34.8137 19.2501 34.2834C20.3095 33.8466 21.2514 33.1671 22.0001 32.2997C22.7514 33.1683 23.6966 33.8479 24.7593 34.2834C25.2134 34.8143 25.5064 35.4638 25.6038 36.1556C25.7012 36.8474 25.5989 37.5526 25.309 38.1883C25.0192 38.8239 24.5537 39.3635 23.9675 39.7435C23.3813 40.1236 22.6987 40.3282 22.0001 40.3334ZM27.5001 31.1667C26.8023 31.1598 26.1209 30.9539 25.5361 30.5732C24.9512 30.1925 24.4872 29.6528 24.1984 29.0175C23.9096 28.3822 23.8081 27.6777 23.9059 26.9867C24.0036 26.2957 24.2965 25.647 24.7501 25.1167C25.8095 24.6799 26.7514 24.0005 27.5001 23.133C28.248 24.0031 29.19 24.6852 30.2501 25.124C30.7015 25.6545 30.9925 26.3025 31.089 26.9923C31.1854 27.6821 31.0835 28.3851 30.795 29.0191C30.5065 29.653 30.0433 30.1917 29.4598 30.572C28.8763 30.9524 28.1966 31.1586 27.5001 31.1667ZM33.0001 22C32.0277 22 31.095 21.6137 30.4074 20.9261C29.7198 20.2385 29.3334 19.3058 29.3334 18.3334C29.3334 17.3609 29.7198 16.4283 30.4074 15.7407C31.095 15.053 32.0277 14.6667 33.0001 14.6667C33.9726 14.6667 34.9052 15.053 35.5928 15.7407C36.2805 16.4283 36.6668 17.3609 36.6668 18.3334C36.6668 19.3058 36.2805 20.2385 35.5928 20.9261C34.9052 21.6137 33.9726 22 33.0001 22Z" fill="url(#paint0_linear_1828_14147)"/>
<defs>
<linearGradient id="paint0_linear_1828_14147" x1="22.0012" y1="0.0185547" x2="22.0012" y2="43.9981" gradientUnits="userSpaceOnUse">
<stop stop-color="#FF8A65"/>
<stop offset="1" stop-color="#F9BC60"/>
</linearGradient>
</defs>
</svg>
