<svg width="233" height="229" viewBox="0 0 233 229" fill="none" xmlns="http://www.w3.org/2000/svg">
<g filter="url(#filter0_bd_176_27379)">
<rect x="52" y="48" width="129" height="125" rx="15" fill="url(#paint0_linear_176_27379)" fill-opacity="0.8" shape-rendering="crispEdges"/>
<path d="M129.626 123.626C127.902 125.349 125.856 126.717 123.604 127.65C121.351 128.583 118.938 129.063 116.5 129.063C114.062 129.063 111.649 128.583 109.396 127.65C107.144 126.717 105.098 125.349 103.374 123.626M153.625 110.5C153.625 115.375 152.665 120.203 150.799 124.707C148.933 129.211 146.199 133.304 142.751 136.751C139.304 140.199 135.211 142.933 130.707 144.799C126.203 146.665 121.375 147.625 116.5 147.625C111.625 147.625 106.797 146.665 102.293 144.799C97.7887 142.933 93.696 140.199 90.2487 136.751C86.8013 133.304 84.0667 129.211 82.201 124.707C80.3353 120.203 79.375 115.375 79.375 110.5C79.375 100.654 83.2864 91.2109 90.2487 84.2487C97.2109 77.2864 106.654 73.375 116.5 73.375C126.346 73.375 135.789 77.2864 142.751 84.2487C149.714 91.2109 153.625 100.654 153.625 110.5ZM107.219 101.219C107.219 102.927 106.526 104.312 105.672 104.312C104.818 104.312 104.125 102.927 104.125 101.219C104.125 99.511 104.818 98.125 105.672 98.125C106.526 98.125 107.219 99.511 107.219 101.219ZM105.672 101.219H105.705V101.281H105.672V101.219ZM128.875 101.219C128.875 102.927 128.182 104.312 127.328 104.312C126.474 104.312 125.781 102.927 125.781 101.219C125.781 99.511 126.474 98.125 127.328 98.125C128.182 98.125 128.875 99.511 128.875 101.219ZM127.328 101.219H127.361V101.281H127.328V101.219Z" stroke="#F9BC60" stroke-width="2" stroke-linecap="round" stroke-linejoin="round"/>
</g>
<defs>
<filter id="filter0_bd_176_27379" x="0.299999" y="0.299999" width="232.4" height="228.4" filterUnits="userSpaceOnUse" color-interpolation-filters="sRGB">
<feFlood flood-opacity="0" result="BackgroundImageFix"/>
<feGaussianBlur in="BackgroundImageFix" stdDeviation="7.5"/>
<feComposite in2="SourceAlpha" operator="in" result="effect1_backgroundBlur_176_27379"/>
<feColorMatrix in="SourceAlpha" type="matrix" values="0 0 0 0 0 0 0 0 0 0 0 0 0 0 0 0 0 0 127 0" result="hardAlpha"/>
<feOffset dy="4"/>
<feGaussianBlur stdDeviation="25.85"/>
<feComposite in2="hardAlpha" operator="out"/>
<feColorMatrix type="matrix" values="0 0 0 0 0 0 0 0 0 0 0 0 0 0 0 0 0 0 0.25 0"/>
<feBlend mode="normal" in2="effect1_backgroundBlur_176_27379" result="effect2_dropShadow_176_27379"/>
<feBlend mode="normal" in="SourceGraphic" in2="effect2_dropShadow_176_27379" result="shape"/>
</filter>
<linearGradient id="paint0_linear_176_27379" x1="116.5" y1="48" x2="116.5" y2="173" gradientUnits="userSpaceOnUse">
<stop stop-color="#FDAF5C"/>
<stop offset="1" stop-color="#E16162"/>
</linearGradient>
</defs>
</svg>
