<svg width="44" height="44" viewBox="0 0 44 44" fill="none" xmlns="http://www.w3.org/2000/svg">
<path d="M39.5578 16.4999C41.9375 11.0237 42.7661 5.98388 41.6863 3.05788C41.0886 1.43171 40.0418 0.691046 39.2681 0.355546C34.5125 -1.71062 28.2516 5.24138 24.4566 12.5784C24.4566 12.5784 23.7435 13.9534 23.3585 14.7179C23.1605 13.9442 22.9148 13.1797 22.5885 12.4409L20.9458 8.71371C20.4288 7.54038 20.1666 6.29738 20.1666 5.01588V3.66655H22V-0.000121105H5.49995V3.66655H7.33329V5.01588C7.33329 6.29555 7.07112 7.54038 6.55412 8.71371L4.91145 12.4409C4.33579 13.7425 3.97279 15.1029 3.79495 16.4999H-0.0605469L3.45395 39.334C3.86829 42.0382 6.15445 43.9999 8.88979 43.9999H35.112C37.8473 43.9999 40.1335 42.0382 40.5478 39.3359L44.0623 16.4999H39.5578ZM29.3883 11.3372L32.9725 13.4877L34.859 10.3435L31.5131 8.33605C34.3658 4.77938 36.9325 3.34755 37.807 3.71788C37.9793 3.79305 38.126 3.99655 38.247 4.32471C38.9088 6.12138 38.3368 10.6589 35.53 16.4999H26.5631C26.9683 15.6914 27.3313 14.9947 27.566 14.5437C27.566 14.5437 28.8236 12.2319 29.3865 11.339L29.3883 11.3372ZM8.26829 13.9204L9.91095 10.1932C10.6351 8.55055 11.0018 6.80888 11.0018 5.01771V3.66838H16.5018V5.01771C16.5018 6.81071 16.8685 8.55055 17.5926 10.1932L19.2353 13.9204C19.602 14.7509 19.8476 15.6162 19.9998 16.4999H7.50745C7.65779 15.6162 7.90529 14.7509 8.27195 13.9204H8.26829ZM36.9233 38.7804C36.7858 39.6805 36.0231 40.335 35.112 40.335H8.88979C7.97862 40.335 7.21595 39.6824 7.07845 38.7785L4.21479 20.1684H39.7851L36.9233 38.7804ZM23.8333 36.6684H20.1666V23.835H23.8333V36.6684ZM33 36.6684H29.3333V23.835H33V36.6684ZM14.6666 36.6684H11V23.835H14.6666V36.6684Z" fill="url(#paint0_linear_1828_14135)"/>
<defs>
<linearGradient id="paint0_linear_1828_14135" x1="22.0009" y1="-0.0136719" x2="22.0009" y2="43.9999" gradientUnits="userSpaceOnUse">
<stop stop-color="#FF8A65"/>
<stop offset="1" stop-color="#F9BC60"/>
</linearGradient>
</defs>
</svg>
