<svg width="64" height="64" viewBox="0 0 64 64" fill="none" xmlns="http://www.w3.org/2000/svg">
<path d="M38.667 22.6663C36.5851 22.1266 33.6921 21.333 31.3729 21.333C19.9373 21.333 10.667 28.4466 10.667 37.2218C10.667 42.2645 13.7282 46.7583 18.5023 49.6693L17.2088 53.9354C16.8973 54.9629 17.6662 55.9997 18.74 55.9997H23.4442C23.7906 55.9997 24.1276 55.8874 24.4046 55.6794L28.1235 52.8885H34.6219L38.3409 55.6794C38.6179 55.8874 38.955 55.9997 39.3014 55.9997H44.0057C45.0793 55.9997 45.8483 54.9629 45.5366 53.9354L44.2433 49.6693C47.0875 47.9351 49.3238 45.6389 50.667 42.9997" stroke="#7E22CE" stroke-width="1.5" stroke-linecap="round" stroke-linejoin="round"/>
<path d="M38.667 22.667L50.667 18.667L50.443 28.3425L56.0003 30.667V40.0003L50.8646 42.667" stroke="#7E22CE" stroke-width="1.5" stroke-linecap="round" stroke-linejoin="round"/>
<path d="M41.3333 34.6667C40.5971 34.6667 40 34.0696 40 33.3333C40 32.5971 40.5971 32 41.3333 32C42.0696 32 42.6667 32.5971 42.6667 33.3333C42.6667 34.0696 42.0696 34.6667 41.3333 34.6667Z" fill="#7E22CE" stroke="#7E22CE" stroke-width="1.5" stroke-linecap="round" stroke-linejoin="round"/>
<path d="M5.33301 26.667C5.33301 26.667 5.33301 33.067 10.6663 34.667" stroke="#7E22CE" stroke-width="1.5" stroke-linecap="round" stroke-linejoin="round"/>
<path d="M34.1355 20.6746C34.4795 19.6835 34.6667 18.617 34.6667 17.5059C34.6667 12.2559 30.488 8 25.3333 8C20.1787 8 16 12.2559 16 17.5059C16 20.017 16.956 22.3007 18.5174 24" stroke="#7E22CE" stroke-width="1.5" stroke-linejoin="round"/>
</svg>
