<svg width="277" height="54" viewBox="0 0 277 54" fill="none" xmlns="http://www.w3.org/2000/svg">
<rect width="277" height="54" rx="27" fill="#D9E1EF"/>
<path d="M37.052 33H35.594L31.832 28.896C31.544 28.584 31.334 28.272 31.202 27.96C31.07 27.648 31.004 27.342 31.004 27.042C31.004 26.73 31.07 26.418 31.202 26.106C31.334 25.782 31.544 25.464 31.832 25.152L35.558 20.976H36.926L32.84 25.548C32.612 25.812 32.432 26.064 32.3 26.304C32.18 26.544 32.12 26.778 32.12 27.006C32.12 27.234 32.18 27.462 32.3 27.69C32.432 27.918 32.612 28.164 32.84 28.428L37.052 33ZM29.132 33H27.98V20.976H29.132V33ZM31.598 26.484V27.528H28.664V26.484H31.598ZM42.1364 33.18C41.2964 33.18 40.5404 32.976 39.8684 32.568C39.2084 32.148 38.6804 31.596 38.2844 30.912C37.9004 30.216 37.7084 29.448 37.7084 28.608C37.7084 27.78 37.9064 27.024 38.3024 26.34C38.7104 25.644 39.2564 25.092 39.9404 24.684C40.6364 24.276 41.4164 24.072 42.2804 24.072C43.1444 24.072 43.9184 24.276 44.6024 24.684C45.2984 25.08 45.8504 25.62 46.2584 26.304C46.6664 26.988 46.8704 27.756 46.8704 28.608V33H45.8084V29.652L46.2764 28.968C46.2764 29.748 46.0964 30.456 45.7364 31.092C45.3764 31.728 44.8844 32.238 44.2604 32.622C43.6484 32.994 42.9404 33.18 42.1364 33.18ZM42.2804 32.118C42.9284 32.118 43.5164 31.962 44.0444 31.65C44.5724 31.326 44.9864 30.9 45.2864 30.372C45.5984 29.844 45.7544 29.262 45.7544 28.626C45.7544 27.99 45.5984 27.408 45.2864 26.88C44.9864 26.352 44.5724 25.932 44.0444 25.62C43.5164 25.296 42.9284 25.134 42.2804 25.134C41.6324 25.134 41.0444 25.296 40.5164 25.62C40.0004 25.932 39.5864 26.352 39.2744 26.88C38.9744 27.408 38.8244 27.99 38.8244 28.626C38.8244 29.262 38.9744 29.844 39.2744 30.372C39.5864 30.9 40.0004 31.326 40.5164 31.65C41.0444 31.962 41.6324 32.118 42.2804 32.118ZM53.5446 37.212C52.7166 37.212 51.9426 37.032 51.2226 36.672C50.5146 36.324 49.9626 35.784 49.5666 35.052L50.5026 34.53C50.8146 35.082 51.2406 35.49 51.7806 35.754C52.3206 36.018 52.9026 36.15 53.5266 36.15C54.2466 36.15 54.8406 35.982 55.3086 35.646C55.7886 35.31 56.1486 34.854 56.3886 34.278C56.6286 33.714 56.7426 33.078 56.7306 32.37V29.958L57.1266 29.346C57.1026 30.066 56.9466 30.714 56.6586 31.29C56.3826 31.854 55.9866 32.304 55.4706 32.64C54.9666 32.976 54.3426 33.144 53.5986 33.144C52.7466 33.144 52.0326 32.964 51.4566 32.604C50.8806 32.244 50.4426 31.746 50.1426 31.11C49.8546 30.474 49.7106 29.736 49.7106 28.896V24.27H50.8266V28.788C50.8266 29.772 51.0666 30.57 51.5466 31.182C52.0386 31.782 52.7586 32.082 53.7066 32.082C54.3426 32.082 54.8826 31.926 55.3266 31.614C55.7826 31.302 56.1306 30.882 56.3706 30.354C56.6106 29.814 56.7306 29.226 56.7306 28.59V24.27H57.8466V32.37C57.8466 33.306 57.6846 34.14 57.3606 34.872C57.0366 35.604 56.5506 36.174 55.9026 36.582C55.2666 37.002 54.4806 37.212 53.5446 37.212ZM64.8508 33.198C63.9868 33.198 63.2068 32.994 62.5108 32.586C61.8268 32.166 61.2808 31.614 60.8728 30.93C60.4768 30.234 60.2788 29.472 60.2788 28.644C60.2788 27.78 60.4768 27.006 60.8728 26.322C61.2688 25.626 61.8088 25.08 62.4928 24.684C63.1768 24.276 63.9448 24.072 64.7968 24.072C65.5648 24.072 66.2608 24.258 66.8848 24.63C67.5208 24.99 68.0248 25.476 68.3968 26.088C68.7808 26.7 68.9727 27.372 68.9727 28.104L68.3068 27.42L68.3248 20.256H69.4408V28.644C69.4408 29.496 69.2368 30.27 68.8288 30.966C68.4208 31.65 67.8688 32.196 67.1728 32.604C66.4888 33 65.7148 33.198 64.8508 33.198ZM64.8508 32.136C65.4988 32.136 66.0868 31.98 66.6148 31.668C67.1428 31.344 67.5568 30.918 67.8568 30.39C68.1688 29.862 68.3248 29.28 68.3248 28.644C68.3248 28.008 68.1688 27.426 67.8568 26.898C67.5568 26.358 67.1428 25.932 66.6148 25.62C66.0868 25.296 65.4988 25.134 64.8508 25.134C64.2028 25.134 63.6148 25.296 63.0868 25.62C62.5708 25.932 62.1568 26.358 61.8447 26.898C61.5448 27.426 61.3948 28.008 61.3948 28.644C61.3948 29.28 61.5448 29.862 61.8447 30.39C62.1568 30.918 62.5708 31.344 63.0868 31.668C63.6148 31.98 64.2028 32.136 64.8508 32.136ZM72.677 24.27H73.793V33H72.677V24.27ZM78.1439 33H77.0279V27.618C77.0279 26.934 77.1539 26.334 77.4059 25.818C77.6579 25.29 78.0179 24.882 78.4859 24.594C78.9659 24.294 79.5419 24.144 80.2139 24.144C80.4899 24.144 80.7539 24.174 81.0059 24.234C81.2579 24.282 81.4979 24.36 81.7259 24.468V25.602C81.5099 25.47 81.2819 25.374 81.0419 25.314C80.8019 25.254 80.5559 25.224 80.3039 25.224C79.6439 25.224 79.1159 25.446 78.7199 25.89C78.3359 26.334 78.1439 26.928 78.1439 27.672V33ZM93.7316 24.054C94.5596 24.054 95.2616 24.246 95.8376 24.63C96.4136 25.014 96.8516 25.536 97.1516 26.196C97.4636 26.844 97.6196 27.576 97.6196 28.392V33H96.5036V28.554C96.5036 27.942 96.3956 27.378 96.1796 26.862C95.9756 26.334 95.6636 25.914 95.2436 25.602C94.8236 25.278 94.3016 25.116 93.6776 25.116C93.0776 25.116 92.5676 25.272 92.1476 25.584C91.7396 25.884 91.4276 26.292 91.2116 26.808C90.9956 27.312 90.8876 27.87 90.8876 28.482V33H89.7716V28.5C89.7716 27.876 89.6636 27.312 89.4476 26.808C89.2316 26.292 88.9076 25.884 88.4756 25.584C88.0556 25.272 87.5396 25.116 86.9276 25.116C86.3036 25.116 85.7876 25.278 85.3796 25.602C84.9716 25.914 84.6656 26.328 84.4616 26.844C84.2576 27.36 84.1556 27.924 84.1556 28.536V33H83.0396V28.41C83.0396 27.594 83.1896 26.856 83.4896 26.196C83.7896 25.536 84.2216 25.014 84.7856 24.63C85.3616 24.246 86.0516 24.054 86.8556 24.054C87.5756 24.054 88.1996 24.204 88.7276 24.504C89.2676 24.804 89.6876 25.212 89.9876 25.728C90.2996 26.232 90.4676 26.814 90.4916 27.474H90.2396C90.2756 26.814 90.4376 26.232 90.7256 25.728C91.0256 25.212 91.4276 24.804 91.9316 24.504C92.4476 24.204 93.0476 24.054 93.7316 24.054ZM104.293 33.18C103.453 33.18 102.697 32.976 102.025 32.568C101.365 32.148 100.837 31.596 100.441 30.912C100.057 30.216 99.8647 29.448 99.8647 28.608C99.8647 27.78 100.063 27.024 100.459 26.34C100.867 25.644 101.413 25.092 102.097 24.684C102.793 24.276 103.573 24.072 104.437 24.072C105.301 24.072 106.075 24.276 106.759 24.684C107.455 25.08 108.007 25.62 108.415 26.304C108.823 26.988 109.027 27.756 109.027 28.608V33H107.965V29.652L108.433 28.968C108.433 29.748 108.253 30.456 107.893 31.092C107.533 31.728 107.041 32.238 106.417 32.622C105.805 32.994 105.097 33.18 104.293 33.18ZM104.437 32.118C105.085 32.118 105.673 31.962 106.201 31.65C106.729 31.326 107.143 30.9 107.443 30.372C107.755 29.844 107.911 29.262 107.911 28.626C107.911 27.99 107.755 27.408 107.443 26.88C107.143 26.352 106.729 25.932 106.201 25.62C105.673 25.296 105.085 25.134 104.437 25.134C103.789 25.134 103.201 25.296 102.673 25.62C102.157 25.932 101.743 26.352 101.431 26.88C101.131 27.408 100.981 27.99 100.981 28.626C100.981 29.262 101.131 29.844 101.431 30.372C101.743 30.9 102.157 31.326 102.673 31.65C103.201 31.962 103.789 32.118 104.437 32.118ZM115.701 37.212C114.873 37.212 114.099 37.032 113.379 36.672C112.671 36.324 112.119 35.784 111.723 35.052L112.659 34.53C112.971 35.082 113.397 35.49 113.937 35.754C114.477 36.018 115.059 36.15 115.683 36.15C116.403 36.15 116.997 35.982 117.465 35.646C117.945 35.31 118.305 34.854 118.545 34.278C118.785 33.714 118.899 33.078 118.887 32.37V29.958L119.283 29.346C119.259 30.066 119.103 30.714 118.815 31.29C118.539 31.854 118.143 32.304 117.627 32.64C117.123 32.976 116.499 33.144 115.755 33.144C114.903 33.144 114.189 32.964 113.613 32.604C113.037 32.244 112.599 31.746 112.299 31.11C112.011 30.474 111.867 29.736 111.867 28.896V24.27H112.983V28.788C112.983 29.772 113.223 30.57 113.703 31.182C114.195 31.782 114.915 32.082 115.863 32.082C116.499 32.082 117.039 31.926 117.483 31.614C117.939 31.302 118.287 30.882 118.527 30.354C118.767 29.814 118.887 29.226 118.887 28.59V24.27H120.003V32.37C120.003 33.306 119.841 34.14 119.517 34.872C119.193 35.604 118.707 36.174 118.059 36.582C117.423 37.002 116.637 37.212 115.701 37.212ZM126.863 33.18C126.023 33.18 125.267 32.976 124.595 32.568C123.935 32.148 123.407 31.596 123.011 30.912C122.627 30.216 122.435 29.448 122.435 28.608C122.435 27.78 122.633 27.024 123.029 26.34C123.437 25.644 123.983 25.092 124.667 24.684C125.363 24.276 126.143 24.072 127.007 24.072C127.871 24.072 128.645 24.276 129.329 24.684C130.025 25.08 130.577 25.62 130.985 26.304C131.393 26.988 131.597 27.756 131.597 28.608V33H130.535V29.652L131.003 28.968C131.003 29.748 130.823 30.456 130.463 31.092C130.103 31.728 129.611 32.238 128.987 32.622C128.375 32.994 127.667 33.18 126.863 33.18ZM127.007 32.118C127.655 32.118 128.243 31.962 128.771 31.65C129.299 31.326 129.713 30.9 130.013 30.372C130.325 29.844 130.481 29.262 130.481 28.626C130.481 27.99 130.325 27.408 130.013 26.88C129.713 26.352 129.299 25.932 128.771 25.62C128.243 25.296 127.655 25.134 127.007 25.134C126.359 25.134 125.771 25.296 125.243 25.62C124.727 25.932 124.313 26.352 124.001 26.88C123.701 27.408 123.551 27.99 123.551 28.626C123.551 29.262 123.701 29.844 124.001 30.372C124.313 30.9 124.727 31.326 125.243 31.65C125.771 31.962 126.359 32.118 127.007 32.118ZM143.583 33.198C142.719 33.198 141.939 32.994 141.243 32.586C140.559 32.166 140.013 31.614 139.605 30.93C139.209 30.234 139.011 29.472 139.011 28.644C139.011 27.78 139.209 27.006 139.605 26.322C140.001 25.626 140.541 25.08 141.225 24.684C141.909 24.276 142.677 24.072 143.529 24.072C144.297 24.072 144.993 24.258 145.617 24.63C146.253 24.99 146.757 25.476 147.129 26.088C147.513 26.7 147.705 27.372 147.705 28.104L147.039 27.42L147.057 20.256H148.173V28.644C148.173 29.496 147.969 30.27 147.561 30.966C147.153 31.65 146.601 32.196 145.905 32.604C145.221 33 144.447 33.198 143.583 33.198ZM143.583 32.136C144.231 32.136 144.819 31.98 145.347 31.668C145.875 31.344 146.289 30.918 146.589 30.39C146.901 29.862 147.057 29.28 147.057 28.644C147.057 28.008 146.901 27.426 146.589 26.898C146.289 26.358 145.875 25.932 145.347 25.62C144.819 25.296 144.231 25.134 143.583 25.134C142.935 25.134 142.347 25.296 141.819 25.62C141.303 25.932 140.889 26.358 140.577 26.898C140.277 27.426 140.127 28.008 140.127 28.644C140.127 29.28 140.277 29.862 140.577 30.39C140.889 30.918 141.303 31.344 141.819 31.668C142.347 31.98 142.935 32.136 143.583 32.136ZM154.919 33.18C154.067 33.18 153.299 32.982 152.615 32.586C151.931 32.178 151.391 31.632 150.995 30.948C150.611 30.252 150.419 29.472 150.419 28.608C150.419 27.768 150.599 27.006 150.959 26.322C151.319 25.626 151.823 25.074 152.471 24.666C153.119 24.258 153.869 24.054 154.721 24.054C155.573 24.054 156.311 24.24 156.935 24.612C157.559 24.984 158.045 25.494 158.393 26.142C158.741 26.79 158.915 27.528 158.915 28.356V29.022H151.229L151.517 28.248C151.457 28.968 151.565 29.622 151.841 30.21C152.117 30.786 152.519 31.248 153.047 31.596C153.587 31.944 154.211 32.118 154.919 32.118C155.519 32.118 156.071 31.998 156.575 31.758C157.091 31.506 157.505 31.104 157.817 30.552L158.681 31.02C158.285 31.74 157.757 32.28 157.097 32.64C156.449 33 155.723 33.18 154.919 33.18ZM151.553 28.122H157.799C157.787 27.51 157.643 26.982 157.367 26.538C157.103 26.082 156.743 25.734 156.287 25.494C155.831 25.242 155.309 25.116 154.721 25.116C154.121 25.116 153.593 25.248 153.137 25.512C152.681 25.776 152.315 26.136 152.039 26.592C151.775 27.048 151.613 27.558 151.553 28.122ZM162.991 32.118L160.057 24.27H161.245L164.035 31.83C164.071 31.926 164.125 32.004 164.197 32.064C164.269 32.124 164.353 32.154 164.449 32.154C164.557 32.154 164.641 32.124 164.701 32.064C164.773 32.004 164.827 31.926 164.863 31.83L167.653 24.27H168.841L165.889 32.118C165.757 32.478 165.565 32.748 165.313 32.928C165.061 33.108 164.773 33.198 164.449 33.198C164.137 33.198 163.849 33.108 163.585 32.928C163.321 32.748 163.123 32.478 162.991 32.118ZM174.236 33.18C173.396 33.18 172.64 32.976 171.968 32.568C171.308 32.148 170.78 31.596 170.384 30.912C170 30.216 169.808 29.448 169.808 28.608C169.808 27.78 170.006 27.024 170.402 26.34C170.81 25.644 171.356 25.092 172.04 24.684C172.736 24.276 173.516 24.072 174.38 24.072C175.244 24.072 176.018 24.276 176.702 24.684C177.398 25.08 177.95 25.62 178.358 26.304C178.766 26.988 178.97 27.756 178.97 28.608V33H177.908V29.652L178.376 28.968C178.376 29.748 178.196 30.456 177.836 31.092C177.476 31.728 176.984 32.238 176.36 32.622C175.748 32.994 175.04 33.18 174.236 33.18ZM174.38 32.118C175.028 32.118 175.616 31.962 176.144 31.65C176.672 31.326 177.086 30.9 177.386 30.372C177.698 29.844 177.854 29.262 177.854 28.626C177.854 27.99 177.698 27.408 177.386 26.88C177.086 26.352 176.672 25.932 176.144 25.62C175.616 25.296 175.028 25.134 174.38 25.134C173.732 25.134 173.144 25.296 172.616 25.62C172.1 25.932 171.686 26.352 171.374 26.88C171.074 27.408 170.924 27.99 170.924 28.626C170.924 29.262 171.074 29.844 171.374 30.372C171.686 30.9 172.1 31.326 172.616 31.65C173.144 31.962 173.732 32.118 174.38 32.118ZM192.538 24.054C193.366 24.054 194.068 24.246 194.644 24.63C195.22 25.014 195.658 25.536 195.958 26.196C196.27 26.844 196.426 27.576 196.426 28.392V33H195.31V28.554C195.31 27.942 195.202 27.378 194.986 26.862C194.782 26.334 194.47 25.914 194.05 25.602C193.63 25.278 193.108 25.116 192.484 25.116C191.884 25.116 191.374 25.272 190.954 25.584C190.546 25.884 190.234 26.292 190.018 26.808C189.802 27.312 189.694 27.87 189.694 28.482V33H188.578V28.5C188.578 27.876 188.47 27.312 188.254 26.808C188.038 26.292 187.714 25.884 187.282 25.584C186.862 25.272 186.346 25.116 185.734 25.116C185.11 25.116 184.594 25.278 184.186 25.602C183.778 25.914 183.472 26.328 183.268 26.844C183.064 27.36 182.962 27.924 182.962 28.536V33H181.846V28.41C181.846 27.594 181.996 26.856 182.296 26.196C182.596 25.536 183.028 25.014 183.592 24.63C184.168 24.246 184.858 24.054 185.662 24.054C186.382 24.054 187.006 24.204 187.534 24.504C188.074 24.804 188.494 25.212 188.794 25.728C189.106 26.232 189.274 26.814 189.298 27.474H189.046C189.082 26.814 189.244 26.232 189.532 25.728C189.832 25.212 190.234 24.804 190.738 24.504C191.254 24.204 191.854 24.054 192.538 24.054ZM208.339 33.18C207.487 33.18 206.719 32.982 206.035 32.586C205.351 32.178 204.811 31.632 204.415 30.948C204.031 30.252 203.839 29.472 203.839 28.608C203.839 27.768 204.019 27.006 204.379 26.322C204.739 25.626 205.243 25.074 205.891 24.666C206.539 24.258 207.289 24.054 208.141 24.054C208.993 24.054 209.731 24.24 210.355 24.612C210.979 24.984 211.465 25.494 211.813 26.142C212.161 26.79 212.335 27.528 212.335 28.356V29.022H204.649L204.937 28.248C204.877 28.968 204.985 29.622 205.261 30.21C205.537 30.786 205.939 31.248 206.467 31.596C207.007 31.944 207.631 32.118 208.339 32.118C208.939 32.118 209.491 31.998 209.995 31.758C210.511 31.506 210.925 31.104 211.237 30.552L212.101 31.02C211.705 31.74 211.177 32.28 210.517 32.64C209.869 33 209.143 33.18 208.339 33.18ZM204.973 28.122H211.219C211.207 27.51 211.063 26.982 210.787 26.538C210.523 26.082 210.163 25.734 209.707 25.494C209.251 25.242 208.729 25.116 208.141 25.116C207.541 25.116 207.013 25.248 206.557 25.512C206.101 25.776 205.735 26.136 205.459 26.592C205.195 27.048 205.033 27.558 204.973 28.122ZM218.228 33.198C217.616 33.198 217.088 33.072 216.644 32.82C216.212 32.568 215.876 32.214 215.636 31.758C215.408 31.29 215.294 30.75 215.294 30.138V21.948H216.41V30.102C216.41 30.75 216.584 31.254 216.932 31.614C217.28 31.974 217.742 32.154 218.318 32.154C218.63 32.154 218.93 32.1 219.218 31.992C219.506 31.884 219.758 31.74 219.974 31.56V32.64C219.746 32.808 219.476 32.94 219.164 33.036C218.864 33.144 218.552 33.198 218.228 33.198ZM219.974 25.278H213.44V24.27H219.974V25.278Z" fill="#004643"/>
<path d="M245.293 33.7071C245.683 34.0976 246.317 34.0976 246.707 33.7071L253.071 27.3431C253.462 26.9526 253.462 26.3195 253.071 25.9289C252.681 25.5384 252.047 25.5384 251.657 25.9289L246 31.5858L240.343 25.9289C239.953 25.5384 239.319 25.5384 238.929 25.9289C238.538 26.3195 238.538 26.9526 238.929 27.3431L245.293 33.7071ZM247 33V21H245V33H247Z" fill="#004643"/>
</svg>
