<svg width="64" height="64" viewBox="0 0 64 64" fill="none" xmlns="http://www.w3.org/2000/svg">
<path d="M17.9873 10.667H46.1683C46.1683 10.667 43.82 46.0193 32.0779 46.0193C26.3418 46.0193 22.8474 37.583 20.7734 28.9526C18.6017 19.9162 17.9873 10.667 17.9873 10.667Z" stroke="#7E22CE" stroke-width="1.5" stroke-linecap="round" stroke-linejoin="round"/>
<path d="M46.1689 10.6669C46.1689 10.6669 48.6255 8.04647 50.6671 8.00023C54.6671 7.90967 55.4065 10.6669 55.4065 10.6669C56.1895 12.2923 56.8156 16.5184 53.0583 20.4193C49.3007 24.3203 45.0945 27.7336 43.3828 28.9525" stroke="#7E22CE" stroke-width="1.5" stroke-linecap="round" stroke-linejoin="round"/>
<path d="M17.9875 10.6669C17.9875 10.6669 15.428 8.01662 13.3333 8.00027C9.33333 7.96904 8.59384 10.6669 8.59384 10.6669C7.81101 12.2923 7.18477 16.5183 10.9423 20.4193C14.6997 24.3203 19.0621 27.7336 20.7736 28.9528" stroke="#7E22CE" stroke-width="1.5" stroke-linecap="round" stroke-linejoin="round"/>
<path d="M22.6846 53.333C22.6846 48.4567 32.0781 46.0186 32.0781 46.0186C32.0781 46.0186 41.472 48.4567 41.472 53.333H22.6846Z" stroke="#7E22CE" stroke-width="1.5" stroke-linecap="round" stroke-linejoin="round"/>
</svg>
