<svg width="262" height="209" viewBox="0 0 262 209" fill="none" xmlns="http://www.w3.org/2000/svg">
<path d="M245.804 109.178C245.59 105.361 242.241 103.145 237.726 102.734C199.345 99.2466 160.843 96.6632 122.271 94.9871L126.699 94.9036C135.327 94.7364 143.925 94.3009 152.431 93.0539C152.532 93.04 152.628 93.0156 152.724 92.9947C164.326 92.9215 175.929 93.0121 187.522 93.235C203.046 93.5311 218.56 94.0606 234.066 94.7224C238.293 94.9035 242.332 91.6292 242.145 88.2782C241.935 84.5093 238.586 82.1824 234.066 81.8341C183.068 77.9153 131.725 76.9748 80.5562 79.0683C73.5389 79.3539 66.5261 79.7023 59.5176 80.1029C57.5788 78.0163 54.2863 76.8947 50.9021 77.6401C41.5924 79.6883 32.2652 81.7017 22.9293 83.6768C19.0342 84.5023 16.6194 87.6373 17.1434 90.7479C17.2439 91.3436 17.4709 91.9392 17.7941 92.507C16.7504 93.6461 16.1216 95.0289 16.1959 96.3387C16.3618 99.3204 18.6281 101.574 22.1258 102.553C33.9289 105.859 46.7058 105.813 59.1289 105.97C58.7534 106.482 58.4608 107.015 58.2818 107.534C57.474 109.868 58.4303 112.038 60.3603 113.804C65.4781 118.482 74.1852 118.573 81.316 119.21C88.4555 119.851 95.6212 120.311 102.787 120.725C106.223 120.924 109.664 121.112 113.105 121.304C113.162 122.279 113.485 123.237 114.127 124.087C116.913 127.786 121.572 130.681 126.961 131.472C130.651 132.011 134.829 130.869 136.423 128.072C147.873 128.431 159.34 128.27 170.776 127.591C174.819 127.351 178.151 125.323 178.71 122.004C179.234 118.897 176.837 115.755 172.924 114.933C166.435 113.571 159.881 112.526 153.292 111.693C168.911 111.954 184.518 112.602 200.107 113.421C212.657 114.083 225.193 114.853 237.734 115.629C241.957 115.891 245.996 112.48 245.813 109.185L245.804 109.178Z" fill="#E16162" fill-opacity="0.75"/>
</svg>
