<svg width="77" height="66" viewBox="0 0 77 66" fill="none" xmlns="http://www.w3.org/2000/svg">
<path d="M5.65169 45H1.13969L3.27569 31.392C3.43569 30.432 3.82769 29.704 4.45169 29.208C5.09169 28.696 5.89969 28.44 6.87569 28.44C7.72369 28.44 8.46769 28.64 9.10769 29.04C9.76369 29.424 10.2037 30.064 10.4277 30.96L12.7557 40.032C12.7237 39.936 12.6837 39.888 12.6357 39.888C12.6037 39.888 12.5797 39.904 12.5637 39.936C12.5477 39.968 12.5317 40 12.5157 40.032L14.8197 31.032C15.0437 30.136 15.4917 29.48 16.1637 29.064C16.8357 28.648 17.6037 28.44 18.4677 28.44C19.4117 28.44 20.1877 28.696 20.7957 29.208C21.4197 29.72 21.8037 30.472 21.9477 31.464L23.8677 45H19.3797L18.0117 32.952C18.0277 32.984 18.0437 33.016 18.0597 33.048C18.0757 33.08 18.0997 33.096 18.1317 33.096C18.1637 33.096 18.1877 33.08 18.2037 33.048C18.2197 33.016 18.2357 32.984 18.2517 32.952L15.5157 42.936C15.3077 43.656 14.9397 44.192 14.4117 44.544C13.8997 44.896 13.3077 45.072 12.6357 45.072C11.9797 45.072 11.3797 44.904 10.8357 44.568C10.2917 44.232 9.93169 43.72 9.75569 43.032L7.04369 32.952C7.05969 32.984 7.07569 33.016 7.09169 33.048C7.10769 33.08 7.13169 33.096 7.16369 33.096C7.19569 33.096 7.21969 33.08 7.23569 33.048C7.25169 33.016 7.26769 32.984 7.28369 32.952L5.65169 45ZM38.7799 45H30.3559C28.9959 45 28.0119 44.664 27.4039 43.992C26.8119 43.32 26.5159 42.416 26.5159 41.28V32.52C26.5159 31.384 26.8119 30.48 27.4039 29.808C28.0119 29.136 28.9959 28.8 30.3559 28.8H38.6599V32.76H30.9559V41.04H38.7799V45ZM38.1079 38.88H29.9959L29.3959 34.92H38.1079V38.88ZM45.9766 45H41.7766V31.176C41.7766 30.6 41.9046 30.104 42.1606 29.688C42.4326 29.272 42.7766 28.96 43.1926 28.752C43.6246 28.528 44.0726 28.416 44.5366 28.416C45.0966 28.416 45.6086 28.52 46.0726 28.728C46.5526 28.92 46.9366 29.248 47.2246 29.712L54.2086 40.776C54.0646 40.6 53.9366 40.48 53.8246 40.416C53.7126 40.352 53.5926 40.32 53.4646 40.32C53.3206 40.32 53.1926 40.384 53.0806 40.512C52.9846 40.64 52.9366 40.824 52.9366 41.064V28.8H57.1366V42.624C57.1366 43.2 57.0006 43.696 56.7286 44.112C56.4726 44.512 56.1366 44.816 55.7206 45.024C55.3046 45.248 54.8566 45.36 54.3766 45.36C53.8326 45.36 53.3206 45.256 52.8406 45.048C52.3606 44.84 51.9766 44.512 51.6886 44.064L44.8006 33.144C44.9126 33.288 45.0166 33.392 45.1126 33.456C45.2246 33.504 45.3446 33.528 45.4726 33.528C45.6326 33.528 45.7526 33.464 45.8326 33.336C45.9286 33.208 45.9766 33.016 45.9766 32.76V45ZM67.8655 45.288C65.3215 45.288 63.4575 44.624 62.2735 43.296C61.0895 41.952 60.4975 40.08 60.4975 37.68V28.8H64.9375V37.56C64.9375 38.808 65.1775 39.712 65.6575 40.272C66.1535 40.816 66.8895 41.088 67.8655 41.088C68.8575 41.088 69.5935 40.816 70.0735 40.272C70.5695 39.712 70.8175 38.808 70.8175 37.56V28.8H75.2575V37.68C75.2575 40.08 74.6575 41.952 73.4575 43.296C72.2575 44.624 70.3935 45.288 67.8655 45.288Z" fill="white"/>
<g clip-path="url(#clip0_1867_12622)">
<path d="M50 21.0834C50 21.3375 49.899 21.5813 49.7193 21.761C49.5396 21.9408 49.2958 22.0417 49.0417 22.0417H27.9583C27.7042 22.0417 27.4604 21.9408 27.2807 21.761C27.101 21.5813 27 21.3375 27 21.0834C27 20.8292 27.101 20.5855 27.2807 20.4057C27.4604 20.226 27.7042 20.125 27.9583 20.125H49.0417C49.2958 20.125 49.5396 20.226 49.7193 20.4057C49.899 20.5855 50 20.8292 50 21.0834ZM28.9167 18.2084H48.0833C48.3375 18.2084 48.5813 18.1074 48.761 17.9277C48.9407 17.748 49.0417 17.5042 49.0417 17.25V16.2917C49.0382 13.6633 48.0538 11.1309 46.2813 9.1901C44.5087 7.24934 42.0756 6.04004 39.4583 5.79892V4.52626C39.8237 4.31529 40.1093 3.98966 40.2708 3.59985C40.4322 3.21004 40.4606 2.77785 40.3514 2.3703C40.2422 1.96276 40.0015 1.60263 39.6668 1.34578C39.3321 1.08893 38.9219 0.949707 38.5 0.949707C38.0781 0.949707 37.6679 1.08893 37.3332 1.34578C36.9985 1.60263 36.7578 1.96276 36.6486 2.3703C36.5394 2.77785 36.5678 3.21004 36.7292 3.59985C36.8907 3.98966 37.1763 4.31529 37.5417 4.52626V5.79892C34.9244 6.04004 32.4913 7.24934 30.7187 9.1901C28.9462 11.1309 27.9618 13.6633 27.9583 16.2917V17.25C27.9583 17.5042 28.0593 17.748 28.239 17.9277C28.4187 18.1074 28.6625 18.2084 28.9167 18.2084Z" fill="url(#paint0_linear_1867_12622)"/>
</g>
<path d="M6.97428 58H4.71828L5.78628 51.196C5.86628 50.716 6.06228 50.352 6.37428 50.104C6.69428 49.848 7.09828 49.72 7.58628 49.72C8.01028 49.72 8.38228 49.82 8.70228 50.02C9.03028 50.212 9.25028 50.532 9.36228 50.98L10.5263 55.516C10.5103 55.468 10.4903 55.444 10.4663 55.444C10.4503 55.444 10.4383 55.452 10.4303 55.468C10.4223 55.484 10.4143 55.5 10.4063 55.516L11.5583 51.016C11.6703 50.568 11.8943 50.24 12.2303 50.032C12.5663 49.824 12.9503 49.72 13.3823 49.72C13.8543 49.72 14.2423 49.848 14.5463 50.104C14.8583 50.36 15.0503 50.736 15.1223 51.232L16.0823 58H13.8383L13.1543 51.976C13.1623 51.992 13.1703 52.008 13.1783 52.024C13.1863 52.04 13.1983 52.048 13.2143 52.048C13.2303 52.048 13.2423 52.04 13.2503 52.024C13.2583 52.008 13.2663 51.992 13.2743 51.976L11.9063 56.968C11.8023 57.328 11.6183 57.596 11.3543 57.772C11.0983 57.948 10.8023 58.036 10.4663 58.036C10.1383 58.036 9.83828 57.952 9.56628 57.784C9.29428 57.616 9.11428 57.36 9.02628 57.016L7.67028 51.976C7.67828 51.992 7.68628 52.008 7.69428 52.024C7.70228 52.04 7.71428 52.048 7.73028 52.048C7.74628 52.048 7.75828 52.04 7.76628 52.024C7.77428 52.008 7.78228 51.992 7.79028 51.976L6.97428 58ZM23.2504 56.632H18.6064V54.652H23.2504V56.632ZM16.7464 58L18.8344 51.184C18.9864 50.688 19.2504 50.32 19.6264 50.08C20.0024 49.84 20.3984 49.72 20.8144 49.72C21.2384 49.72 21.6344 49.84 22.0024 50.08C22.3784 50.32 22.6424 50.688 22.7944 51.184L24.8824 58H22.6144L20.9224 51.832C20.8984 51.752 20.8664 51.712 20.8264 51.712C20.7864 51.712 20.7544 51.752 20.7304 51.832L19.0144 58H16.7464ZM28.7945 58.192C28.0265 58.192 27.3545 58.036 26.7785 57.724C26.2105 57.412 25.7865 56.956 25.5065 56.356L27.3545 55.432C27.4665 55.68 27.6385 55.864 27.8705 55.984C28.1105 56.096 28.4185 56.152 28.7945 56.152C28.9945 56.152 29.1705 56.132 29.3225 56.092C29.4745 56.052 29.5945 55.992 29.6825 55.912C29.7785 55.824 29.8265 55.716 29.8265 55.588C29.8265 55.428 29.7745 55.308 29.6705 55.228C29.5745 55.148 29.4345 55.088 29.2505 55.048C29.0745 55 28.8625 54.96 28.6145 54.928C28.3105 54.88 27.9865 54.812 27.6425 54.724C27.2985 54.628 26.9705 54.488 26.6585 54.304C26.3545 54.112 26.1065 53.86 25.9145 53.548C25.7225 53.228 25.6265 52.828 25.6265 52.348C25.6265 51.852 25.7625 51.408 26.0345 51.016C26.3065 50.616 26.6785 50.3 27.1505 50.068C27.6225 49.836 28.1585 49.72 28.7585 49.72C29.4705 49.72 30.1065 49.876 30.6665 50.188C31.2345 50.5 31.6545 50.956 31.9265 51.556L30.0785 52.48C29.9665 52.28 29.7945 52.112 29.5625 51.976C29.3385 51.832 29.0385 51.76 28.6625 51.76C28.4865 51.76 28.3385 51.78 28.2185 51.82C28.0985 51.852 28.0065 51.908 27.9425 51.988C27.8785 52.06 27.8465 52.152 27.8465 52.264C27.8465 52.416 27.9025 52.54 28.0145 52.636C28.1265 52.724 28.2785 52.796 28.4705 52.852C28.6705 52.9 28.9025 52.944 29.1665 52.984C29.4705 53.032 29.7865 53.104 30.1145 53.2C30.4505 53.288 30.7625 53.428 31.0505 53.62C31.3465 53.804 31.5865 54.052 31.7705 54.364C31.9545 54.676 32.0465 55.076 32.0465 55.564C32.0465 56.06 31.8985 56.508 31.6025 56.908C31.3145 57.3 30.9225 57.612 30.4265 57.844C29.9385 58.076 29.3945 58.192 28.7945 58.192ZM34.9759 49.9H37.1959V58H34.9759V49.9ZM39.4879 49.9V51.94H32.6839V49.9H39.4879ZM46.6361 58H42.4241C41.7441 58 41.2521 57.832 40.9481 57.496C40.6521 57.16 40.5041 56.708 40.5041 56.14V51.76C40.5041 51.192 40.6521 50.74 40.9481 50.404C41.2521 50.068 41.7441 49.9 42.4241 49.9H46.5761V51.88H42.7241V56.02H46.6361V58ZM46.3001 54.94H42.2441L41.9441 52.96H46.3001V54.94ZM50.3904 58H48.1944V49.9H51.5904C52.2304 49.9 52.8064 50 53.3184 50.2C53.8304 50.4 54.2344 50.7 54.5304 51.1C54.8264 51.492 54.9744 51.988 54.9744 52.588C54.9744 53.036 54.8744 53.44 54.6744 53.8C54.4824 54.152 54.2104 54.432 53.8584 54.64C53.5144 54.848 53.1064 54.952 52.6344 54.952L52.0344 54.532C52.5144 54.532 52.8904 54.588 53.1624 54.7C53.4424 54.812 53.6744 54.996 53.8584 55.252C54.0424 55.508 54.2424 55.856 54.4584 56.296L55.2864 58H52.8744L52.1184 56.476C52.0304 56.292 51.9304 56.144 51.8184 56.032C51.7064 55.92 51.5704 55.84 51.4104 55.792C51.2504 55.744 51.0504 55.72 50.8104 55.72H50.2224V53.752H51.5904C51.8064 53.752 51.9984 53.716 52.1664 53.644C52.3344 53.564 52.4624 53.456 52.5504 53.32C52.6464 53.176 52.6944 53.008 52.6944 52.816C52.6944 52.608 52.6464 52.44 52.5504 52.312C52.4624 52.184 52.3344 52.092 52.1664 52.036C52.0064 51.972 51.8224 51.94 51.6144 51.94H50.4144L50.3904 58ZM65.8129 56.632H61.1689V54.652H65.8129V56.632ZM59.3089 58L61.3969 51.184C61.5489 50.688 61.8129 50.32 62.1889 50.08C62.5649 49.84 62.9609 49.72 63.3769 49.72C63.8009 49.72 64.1969 49.84 64.5649 50.08C64.9409 50.32 65.2049 50.688 65.3569 51.184L67.4449 58H65.1769L63.4849 51.832C63.4609 51.752 63.4289 51.712 63.3889 51.712C63.3489 51.712 63.3169 51.752 63.2929 51.832L61.5769 58H59.3089ZM68.585 49.9H70.805V58H68.585V49.9Z" fill="white"/>
<defs>
<linearGradient id="paint0_linear_1867_12622" x1="27" y1="-33.5885" x2="56.5096" y2="-31.6549" gradientUnits="userSpaceOnUse">
<stop stop-color="#EE714A"/>
<stop offset="1" stop-color="#F9BC60"/>
</linearGradient>
<clipPath id="clip0_1867_12622">
<rect width="23" height="23" fill="white" transform="translate(27)"/>
</clipPath>
</defs>
</svg>
