<svg width="27" height="27" viewBox="0 0 27 27" fill="none" xmlns="http://www.w3.org/2000/svg">
<path d="M11.7032 13.0529L17.0766 18.4262C17.1803 18.5263 17.263 18.6461 17.3199 18.7786C17.3768 18.911 17.4067 19.0534 17.4079 19.1976C17.4092 19.3417 17.3817 19.4847 17.3272 19.6181C17.2726 19.7515 17.192 19.8727 17.09 19.9746C16.9881 20.0765 16.8669 20.1571 16.7335 20.2117C16.6001 20.2663 16.4572 20.2938 16.313 20.2925C16.1689 20.2912 16.0265 20.2613 15.894 20.2044C15.7616 20.1475 15.6418 20.0648 15.5417 19.9611L9.40084 13.8203C9.19733 13.6168 9.08301 13.3407 9.08301 13.0529C9.08301 12.765 9.19733 12.489 9.40084 12.2854L15.5417 6.14456C15.7464 5.94683 16.0206 5.83741 16.3052 5.83988C16.5898 5.84236 16.8621 5.95652 17.0634 6.15779C17.2646 6.35905 17.3788 6.63132 17.3813 6.91594C17.3837 7.20056 17.2743 7.47477 17.0766 7.6795L11.7032 13.0529Z" fill="#475569"/>
</svg>
