<svg width="28" height="28" viewBox="0 0 28 28" fill="none" xmlns="http://www.w3.org/2000/svg">
<path d="M15.4261 14.0773L10.0528 8.70391C9.85503 8.49918 9.74561 8.22497 9.74809 7.94035C9.75056 7.65573 9.86472 7.38347 10.066 7.1822C10.2673 6.98094 10.5395 6.86677 10.8241 6.8643C11.1088 6.86183 11.383 6.97124 11.5877 7.16898L17.7285 13.3098C17.932 13.5134 18.0464 13.7894 18.0464 14.0773C18.0464 14.3651 17.932 14.6412 17.7285 14.8447L11.5877 20.9856C11.383 21.1833 11.1088 21.2927 10.8241 21.2902C10.5395 21.2878 10.2673 21.1736 10.066 20.9723C9.86472 20.7711 9.75056 20.4988 9.74809 20.2142C9.74561 19.9296 9.85503 19.6554 10.0528 19.4506L15.4261 14.0773V14.0773Z" fill="#475569"/>
</svg>
