<svg width="33" height="35" viewBox="0 0 31 35" fill="none" xmlns="http://www.w3.org/2000/svg">
<g clip-path="url(#clip0_176_27670)">
<path d="M6.542 10.6027L6 12.5L5.458 10.6027C5.31792 10.1126 5.05527 9.66625 4.69484 9.30583C4.33441 8.9454 3.88809 8.68275 3.398 8.54267L1.5 8L3.39733 7.458C3.88743 7.31792 4.33375 7.05527 4.69417 6.69484C5.0546 6.33441 5.31725 5.88809 5.45733 5.398L6 3.5L6.542 5.39733C6.68209 5.88743 6.94473 6.33375 7.30516 6.69417C7.66559 7.0546 8.11191 7.31725 8.602 7.45733L10.5 8L8.60267 8.542C8.11257 8.68209 7.66625 8.94473 7.30583 9.30516C6.9454 9.66559 6.68275 10.1119 6.54267 10.602L6.542 10.6027ZM12.1727 5.81L12 6.5L11.8273 5.81C11.7285 5.41439 11.524 5.05308 11.2357 4.76469C10.9475 4.47629 10.5862 4.27166 10.1907 4.17267L9.5 4L10.1907 3.82733C10.5862 3.72834 10.9475 3.52371 11.2357 3.23531C11.524 2.94692 11.7285 2.58561 11.8273 2.19L12 1.5L12.1727 2.19C12.2716 2.58569 12.4761 2.94706 12.7645 3.23546C13.0529 3.52386 13.4143 3.72844 13.81 3.82733L14.5 4L13.81 4.17267C13.4143 4.27156 13.0529 4.47614 12.7645 4.76454C12.4761 5.05294 12.2716 5.41431 12.1727 5.81ZM11.2627 13.7113L11 14.5L10.7373 13.7113C10.6637 13.4904 10.5396 13.2897 10.375 13.125C10.2103 12.9604 10.0096 12.8363 9.78867 12.7627L9 12.5L9.78867 12.2373C10.0096 12.1637 10.2103 12.0396 10.375 11.875C10.5396 11.7103 10.6637 11.5096 10.7373 11.2887L11 10.5L11.2627 11.2887C11.3363 11.5096 11.4604 11.7103 11.625 11.875C11.7897 12.0396 11.9904 12.1637 12.2113 12.2373L13 12.5L12.2113 12.7627C11.9904 12.8363 11.7897 12.9604 11.625 13.125C11.4604 13.2897 11.3363 13.4904 11.2627 13.7113Z" stroke="#F9BC60" stroke-width="1.5" stroke-linecap="round" stroke-linejoin="round"/>
</g>
<path d="M23.9999 32.0002C24.2651 32.0002 24.5195 31.8948 24.707 31.7073C24.8945 31.5197 24.9999 31.2654 24.9999 31.0002V25.6502C24.9999 25.1932 25.3159 24.8062 25.7269 24.6092C26.5779 24.2032 27.2581 23.5097 27.6475 22.651C28.037 21.7924 28.1105 20.8238 27.8553 19.9161C27.6001 19.0085 27.0325 18.2202 26.2526 17.6903C25.4727 17.1604 24.5307 16.9231 23.5929 17.0202C23.2067 16.1224 22.5658 15.3574 21.7495 14.82C20.9332 14.2825 19.9772 13.9961 18.9999 13.9961C18.0226 13.9961 17.0666 14.2825 16.2503 14.82C15.434 15.3574 14.7931 16.1224 14.4069 17.0202C13.4695 16.9238 12.5281 17.1615 11.7488 17.6913C10.9695 18.2211 10.4023 19.0091 10.1472 19.9163C9.89206 20.8234 9.96541 21.7915 10.3543 22.6499C10.7432 23.5083 11.4227 24.2018 12.2729 24.6082C12.6839 24.8062 12.9999 25.1932 12.9999 25.6492V31.0002C12.9999 31.2654 13.1053 31.5197 13.2928 31.7073C13.4803 31.8948 13.7347 32.0002 13.9999 32.0002H23.9999Z" stroke="#F9BC60" stroke-width="2" stroke-linecap="round" stroke-linejoin="round"/>
<path d="M13 28H25" stroke="#F9BC60" stroke-width="2" stroke-linecap="round" stroke-linejoin="round"/>
<defs>
<clipPath id="clip0_176_27670">
<rect width="16" height="16" fill="white"/>
</clipPath>
</defs>
</svg>
