<svg width="291" height="157" viewBox="0 0 291 157" fill="none" xmlns="http://www.w3.org/2000/svg">
<g filter="url(#filter0_bd_176_27377)">
<rect x="52" y="48" width="209" height="53" rx="26.5" fill="url(#paint0_linear_176_27377)" fill-opacity="0.95" shape-rendering="crispEdges"/>
<path d="M84.556 80.5H81.928V75.424H84.556V80.5ZM80.578 75.19L77.662 68.386H80.488L82.972 74.47C83.032 74.59 83.074 74.68 83.098 74.74C83.134 74.8 83.182 74.83 83.242 74.83C83.302 74.83 83.35 74.8 83.386 74.74C83.422 74.668 83.464 74.578 83.512 74.47L85.978 68.386H88.822L85.87 75.19C85.594 75.826 85.222 76.312 84.754 76.648C84.286 76.972 83.776 77.134 83.224 77.134C82.684 77.134 82.18 76.972 81.712 76.648C81.244 76.312 80.866 75.826 80.578 75.19ZM92.3904 78.268C92.8344 78.268 93.2004 78.154 93.4884 77.926C93.7884 77.686 94.0104 77.374 94.1544 76.99C94.2984 76.594 94.3704 76.168 94.3704 75.712V71.59H96.9264V76.018C96.9264 76.894 96.7524 77.692 96.4044 78.412C96.0684 79.12 95.5644 79.684 94.8924 80.104C94.2204 80.524 93.3864 80.734 92.3904 80.734C91.4064 80.734 90.5784 80.524 89.9064 80.104C89.2344 79.684 88.7244 79.114 88.3764 78.394C88.0404 77.674 87.8724 76.882 87.8724 76.018V71.59H90.4284V75.73C90.4284 76.174 90.5004 76.594 90.6444 76.99C90.7884 77.374 91.0044 77.686 91.2924 77.926C91.5924 78.154 91.9584 78.268 92.3904 78.268ZM90.2304 70.168C89.8104 70.168 89.4564 70.024 89.1684 69.736C88.8804 69.436 88.7364 69.082 88.7364 68.674C88.7364 68.266 88.8804 67.918 89.1684 67.63C89.4564 67.342 89.8104 67.198 90.2304 67.198C90.6264 67.198 90.9684 67.342 91.2564 67.63C91.5444 67.918 91.6884 68.266 91.6884 68.674C91.6884 69.082 91.5444 69.436 91.2564 69.736C90.9684 70.024 90.6264 70.168 90.2304 70.168ZM94.5864 70.168C94.1784 70.168 93.8304 70.024 93.5424 69.736C93.2544 69.436 93.1104 69.082 93.1104 68.674C93.1104 68.266 93.2544 67.918 93.5424 67.63C93.8304 67.342 94.1784 67.198 94.5864 67.198C94.9944 67.198 95.3424 67.342 95.6304 67.63C95.9184 67.918 96.0624 68.266 96.0624 68.674C96.0624 69.082 95.9184 69.436 95.6304 69.736C95.3424 70.024 94.9944 70.168 94.5864 70.168ZM105.699 80.5H100.011C99.2671 80.5 98.7091 80.32 98.3371 79.96C97.9651 79.588 97.7731 79.162 97.7611 78.682C97.7491 78.262 97.8271 77.896 97.9951 77.584C98.1751 77.272 98.4571 76.996 98.8411 76.756L103.053 73.948C103.101 73.924 103.125 73.888 103.125 73.84C103.125 73.792 103.107 73.768 103.071 73.768C103.047 73.756 103.023 73.75 102.999 73.75H98.0491V71.59H103.539C104.283 71.59 104.841 71.776 105.213 72.148C105.597 72.508 105.789 72.928 105.789 73.408C105.801 73.816 105.717 74.176 105.537 74.488C105.369 74.8 105.093 75.082 104.709 75.334L100.497 78.142C100.449 78.178 100.425 78.226 100.425 78.286C100.425 78.31 100.431 78.328 100.443 78.34C100.467 78.34 100.497 78.34 100.533 78.34H105.699V80.5ZM107.107 67.486H109.663V80.5H107.107V67.486ZM115.671 80.734C114.747 80.734 113.913 80.536 113.169 80.14C112.437 79.732 111.861 79.174 111.441 78.466C111.021 77.746 110.811 76.912 110.811 75.964C110.811 75.112 111.003 74.332 111.387 73.624C111.783 72.904 112.329 72.334 113.025 71.914C113.721 71.482 114.525 71.266 115.437 71.266C116.385 71.266 117.189 71.476 117.849 71.896C118.509 72.304 119.013 72.85 119.361 73.534C119.721 74.218 119.901 74.968 119.901 75.784V76.54H112.845L113.241 75.91C113.217 76.414 113.301 76.864 113.493 77.26C113.697 77.656 113.979 77.968 114.339 78.196C114.711 78.412 115.149 78.52 115.653 78.52C116.133 78.52 116.565 78.406 116.949 78.178C117.345 77.95 117.645 77.632 117.849 77.224L119.811 78.214C119.427 79.018 118.875 79.642 118.155 80.086C117.447 80.518 116.619 80.734 115.671 80.734ZM113.385 75.118H117.363C117.327 74.806 117.219 74.53 117.039 74.29C116.871 74.038 116.649 73.846 116.373 73.714C116.097 73.57 115.779 73.498 115.419 73.498C115.047 73.498 114.717 73.57 114.429 73.714C114.153 73.858 113.925 74.056 113.745 74.308C113.577 74.548 113.457 74.818 113.385 75.118ZM123.429 80.5H120.873V75.388C120.873 74.62 121.017 73.936 121.305 73.336C121.593 72.724 122.031 72.244 122.619 71.896C123.207 71.536 123.939 71.356 124.815 71.356C125.115 71.356 125.409 71.386 125.697 71.446C125.985 71.494 126.243 71.566 126.471 71.662V74.146C126.255 74.014 126.021 73.918 125.769 73.858C125.517 73.798 125.277 73.768 125.049 73.768C124.545 73.768 124.149 73.924 123.861 74.236C123.573 74.536 123.429 74.95 123.429 75.478V80.5ZM131.166 80.734C130.494 80.734 129.864 80.614 129.276 80.374C128.7 80.122 128.196 79.786 127.764 79.366C127.332 78.934 126.99 78.43 126.738 77.854C126.498 77.278 126.378 76.672 126.378 76.036C126.378 75.388 126.498 74.782 126.738 74.218C126.99 73.642 127.332 73.138 127.764 72.706C128.196 72.274 128.7 71.938 129.276 71.698C129.864 71.446 130.494 71.326 131.166 71.338C132.03 71.35 132.828 71.56 133.56 71.968C134.292 72.364 134.862 72.994 135.27 73.858L133.164 75.01C132.96 74.614 132.684 74.308 132.336 74.092C132 73.864 131.61 73.75 131.166 73.75C130.746 73.75 130.368 73.852 130.032 74.056C129.696 74.26 129.426 74.536 129.222 74.884C129.03 75.22 128.934 75.604 128.934 76.036C128.934 76.444 129.03 76.822 129.222 77.17C129.426 77.518 129.696 77.8 130.032 78.016C130.368 78.22 130.746 78.322 131.166 78.322C131.61 78.322 132 78.208 132.336 77.98C132.684 77.752 132.96 77.446 133.164 77.062L135.27 78.214C134.862 79.078 134.292 79.714 133.56 80.122C132.828 80.518 132.03 80.722 131.166 80.734ZM140.305 80.734C139.381 80.734 138.547 80.536 137.803 80.14C137.071 79.732 136.495 79.174 136.075 78.466C135.655 77.746 135.445 76.912 135.445 75.964C135.445 75.112 135.637 74.332 136.021 73.624C136.417 72.904 136.963 72.334 137.659 71.914C138.355 71.482 139.159 71.266 140.071 71.266C141.019 71.266 141.823 71.476 142.483 71.896C143.143 72.304 143.647 72.85 143.995 73.534C144.355 74.218 144.535 74.968 144.535 75.784V76.54H137.479L137.875 75.91C137.851 76.414 137.935 76.864 138.127 77.26C138.331 77.656 138.613 77.968 138.973 78.196C139.345 78.412 139.783 78.52 140.287 78.52C140.767 78.52 141.199 78.406 141.583 78.178C141.979 77.95 142.279 77.632 142.483 77.224L144.445 78.214C144.061 79.018 143.509 79.642 142.789 80.086C142.081 80.518 141.253 80.734 140.305 80.734ZM138.019 75.118H141.997C141.961 74.806 141.853 74.53 141.673 74.29C141.505 74.038 141.283 73.846 141.007 73.714C140.731 73.57 140.413 73.498 140.053 73.498C139.681 73.498 139.351 73.57 139.063 73.714C138.787 73.858 138.559 74.056 138.379 74.308C138.211 74.548 138.091 74.818 138.019 75.118ZM155.519 80.752C154.631 80.752 153.809 80.59 153.053 80.266C152.297 79.942 151.631 79.492 151.055 78.916C150.479 78.34 150.029 77.674 149.705 76.918C149.393 76.15 149.237 75.328 149.237 74.452C149.237 73.564 149.393 72.742 149.705 71.986C150.029 71.23 150.479 70.564 151.055 69.988C151.631 69.412 152.297 68.962 153.053 68.638C153.809 68.314 154.631 68.152 155.519 68.152C156.215 68.152 156.893 68.272 157.553 68.512C158.213 68.752 158.801 69.094 159.317 69.538C159.845 69.982 160.253 70.522 160.541 71.158L158.399 72.364C158.099 71.836 157.709 71.422 157.229 71.122C156.749 70.81 156.143 70.654 155.411 70.654C154.907 70.654 154.439 70.75 154.007 70.942C153.587 71.122 153.221 71.386 152.909 71.734C152.597 72.07 152.357 72.472 152.189 72.94C152.021 73.396 151.937 73.9 151.937 74.452C151.937 74.992 152.021 75.496 152.189 75.964C152.357 76.432 152.591 76.84 152.891 77.188C153.203 77.524 153.575 77.788 154.007 77.98C154.439 78.16 154.907 78.25 155.411 78.25C156.143 78.25 156.749 78.094 157.229 77.782C157.721 77.47 158.111 77.056 158.399 76.54L160.541 77.746C160.253 78.382 159.845 78.922 159.317 79.366C158.801 79.81 158.213 80.152 157.553 80.392C156.893 80.632 156.215 80.752 155.519 80.752ZM156.653 80.5L156.293 81.688H153.953L154.403 80.5H156.653ZM154.745 85.648L153.935 83.956C154.511 83.872 154.907 83.728 155.123 83.524C155.351 83.32 155.465 83.098 155.465 82.858C155.465 82.606 155.345 82.426 155.105 82.318C154.865 82.21 154.547 82.156 154.151 82.156H153.791L154.241 80.95H155.015C155.795 80.938 156.431 81.112 156.923 81.472C157.427 81.832 157.679 82.348 157.679 83.02C157.679 83.5 157.547 83.92 157.283 84.28C157.031 84.652 156.683 84.952 156.239 85.18C155.807 85.408 155.309 85.564 154.745 85.648ZM165.379 80.734C164.455 80.734 163.621 80.536 162.877 80.14C162.145 79.732 161.569 79.174 161.149 78.466C160.729 77.746 160.519 76.912 160.519 75.964C160.519 75.112 160.711 74.332 161.095 73.624C161.491 72.904 162.037 72.334 162.733 71.914C163.429 71.482 164.233 71.266 165.145 71.266C166.093 71.266 166.897 71.476 167.557 71.896C168.217 72.304 168.721 72.85 169.069 73.534C169.429 74.218 169.609 74.968 169.609 75.784V76.54H162.553L162.949 75.91C162.925 76.414 163.009 76.864 163.201 77.26C163.405 77.656 163.687 77.968 164.047 78.196C164.419 78.412 164.857 78.52 165.361 78.52C165.841 78.52 166.273 78.406 166.657 78.178C167.053 77.95 167.353 77.632 167.557 77.224L169.519 78.214C169.135 79.018 168.583 79.642 167.863 80.086C167.155 80.518 166.327 80.734 165.379 80.734ZM163.093 75.118H167.071C167.035 74.806 166.927 74.53 166.747 74.29C166.579 74.038 166.357 73.846 166.081 73.714C165.805 73.57 165.487 73.498 165.127 73.498C164.755 73.498 164.425 73.57 164.137 73.714C163.861 73.858 163.633 74.056 163.453 74.308C163.285 74.548 163.165 74.818 163.093 75.118ZM174.072 80.752C173.136 80.752 172.344 80.584 171.696 80.248C171.06 79.9 170.556 79.396 170.184 78.736L172.074 77.674C172.278 78.034 172.53 78.298 172.83 78.466C173.13 78.622 173.502 78.7 173.946 78.7C174.222 78.7 174.456 78.67 174.648 78.61C174.852 78.538 175.008 78.442 175.116 78.322C175.236 78.19 175.296 78.034 175.296 77.854C175.296 77.614 175.176 77.44 174.936 77.332C174.696 77.212 174.39 77.116 174.018 77.044C173.658 76.972 173.268 76.888 172.848 76.792C172.428 76.696 172.032 76.558 171.66 76.378C171.288 76.198 170.982 75.94 170.742 75.604C170.514 75.256 170.4 74.794 170.4 74.218C170.4 73.678 170.544 73.192 170.832 72.76C171.132 72.328 171.552 71.986 172.092 71.734C172.632 71.482 173.268 71.356 174 71.356C174.648 71.356 175.206 71.446 175.674 71.626C176.142 71.806 176.532 72.04 176.844 72.328C177.168 72.616 177.42 72.934 177.6 73.282L175.71 74.344C175.578 74.02 175.356 73.78 175.044 73.624C174.744 73.468 174.414 73.39 174.054 73.39C173.85 73.39 173.664 73.426 173.496 73.498C173.328 73.558 173.196 73.648 173.1 73.768C173.004 73.876 172.956 74.008 172.956 74.164C172.956 74.404 173.07 74.59 173.298 74.722C173.538 74.842 173.844 74.938 174.216 75.01C174.588 75.082 174.984 75.166 175.404 75.262C175.824 75.358 176.214 75.502 176.574 75.694C176.946 75.874 177.252 76.132 177.492 76.468C177.732 76.804 177.852 77.248 177.852 77.8C177.852 78.4 177.678 78.922 177.33 79.366C176.982 79.798 176.52 80.14 175.944 80.392C175.368 80.632 174.744 80.752 174.072 80.752ZM175.17 80.5L174.792 81.688H172.47L172.902 80.5H175.17ZM173.244 85.648L172.434 83.956C173.01 83.872 173.406 83.728 173.622 83.524C173.85 83.32 173.964 83.098 173.964 82.858C173.964 82.606 173.844 82.426 173.604 82.318C173.376 82.21 173.064 82.156 172.668 82.156H172.29L172.74 80.95H173.532C174.312 80.938 174.948 81.112 175.44 81.472C175.932 81.832 176.178 82.348 176.178 83.02C176.178 83.5 176.052 83.92 175.8 84.28C175.548 84.652 175.2 84.952 174.756 85.18C174.312 85.408 173.808 85.564 173.244 85.648ZM179.076 71.59H181.632V80.5H179.076V71.59ZM180.354 70.258C180.066 70.258 179.796 70.192 179.544 70.06C179.304 69.916 179.112 69.724 178.968 69.484C178.836 69.232 178.77 68.962 178.77 68.674C178.77 68.386 178.836 68.122 178.968 67.882C179.112 67.642 179.304 67.45 179.544 67.306C179.796 67.162 180.066 67.09 180.354 67.09C180.642 67.09 180.906 67.162 181.146 67.306C181.386 67.45 181.572 67.642 181.704 67.882C181.848 68.122 181.92 68.386 181.92 68.674C181.92 68.962 181.848 69.232 181.704 69.484C181.572 69.724 181.386 69.916 181.146 70.06C180.906 70.192 180.642 70.258 180.354 70.258ZM187.82 80.752C186.968 80.752 186.254 80.596 185.678 80.284C185.114 79.96 184.688 79.516 184.4 78.952C184.112 78.376 183.968 77.716 183.968 76.972V69.322H186.524V76.9C186.524 77.392 186.662 77.776 186.938 78.052C187.214 78.328 187.586 78.466 188.054 78.466C188.318 78.466 188.6 78.43 188.9 78.358C189.2 78.286 189.458 78.178 189.674 78.034V80.32C189.446 80.452 189.158 80.554 188.81 80.626C188.474 80.71 188.144 80.752 187.82 80.752ZM189.674 73.75H182.33V71.59H189.674V73.75ZM197.525 68.386H200.153V80.5H197.525V68.386ZM203.717 68.386V70.816H193.961V68.386H203.717ZM207.183 80.734C206.319 80.734 205.557 80.524 204.897 80.104C204.237 79.672 203.715 79.102 203.331 78.394C202.959 77.674 202.773 76.882 202.773 76.018C202.773 75.166 202.983 74.386 203.403 73.678C203.835 72.958 204.411 72.388 205.131 71.968C205.863 71.536 206.685 71.32 207.597 71.32C208.521 71.32 209.349 71.53 210.081 71.95C210.813 72.358 211.389 72.916 211.809 73.624C212.229 74.32 212.439 75.118 212.439 76.018V80.5H210.009V77.278L210.783 77.062C210.783 77.758 210.633 78.388 210.333 78.952C210.033 79.504 209.619 79.942 209.091 80.266C208.563 80.578 207.927 80.734 207.183 80.734ZM207.597 78.34C208.041 78.34 208.431 78.238 208.767 78.034C209.115 77.818 209.385 77.536 209.577 77.188C209.781 76.84 209.883 76.456 209.883 76.036C209.883 75.616 209.781 75.232 209.577 74.884C209.385 74.536 209.115 74.26 208.767 74.056C208.431 73.84 208.041 73.732 207.597 73.732C207.165 73.732 206.775 73.84 206.427 74.056C206.091 74.26 205.821 74.536 205.617 74.884C205.425 75.232 205.329 75.616 205.329 76.036C205.329 76.456 205.425 76.84 205.617 77.188C205.821 77.536 206.091 77.818 206.427 78.034C206.775 78.238 207.165 78.34 207.597 78.34ZM216.234 80.5H213.678V75.388C213.678 74.62 213.822 73.936 214.11 73.336C214.398 72.724 214.836 72.244 215.424 71.896C216.012 71.536 216.744 71.356 217.62 71.356C217.92 71.356 218.214 71.386 218.502 71.446C218.79 71.494 219.048 71.566 219.276 71.662V74.146C219.06 74.014 218.826 73.918 218.574 73.858C218.322 73.798 218.082 73.768 217.854 73.768C217.35 73.768 216.954 73.924 216.666 74.236C216.378 74.536 216.234 74.95 216.234 75.478V80.5ZM219.572 71.59H222.128V80.5H219.572V71.59ZM220.85 70.258C220.562 70.258 220.292 70.192 220.04 70.06C219.8 69.916 219.608 69.724 219.464 69.484C219.332 69.232 219.266 68.962 219.266 68.674C219.266 68.386 219.332 68.122 219.464 67.882C219.608 67.642 219.8 67.45 220.04 67.306C220.292 67.162 220.562 67.09 220.85 67.09C221.138 67.09 221.402 67.162 221.642 67.306C221.882 67.45 222.068 67.642 222.2 67.882C222.344 68.122 222.416 68.386 222.416 68.674C222.416 68.962 222.344 69.232 222.2 69.484C222.068 69.724 221.882 69.916 221.642 70.06C221.402 70.192 221.138 70.258 220.85 70.258ZM227.236 80.5H224.68V71.122C224.68 70.402 224.824 69.754 225.112 69.178C225.4 68.602 225.832 68.146 226.408 67.81C226.984 67.474 227.704 67.306 228.568 67.306C228.868 67.306 229.162 67.336 229.45 67.396C229.738 67.444 229.996 67.516 230.224 67.612V69.97C230.02 69.838 229.792 69.742 229.54 69.682C229.288 69.622 229.042 69.592 228.802 69.592C228.322 69.592 227.938 69.718 227.65 69.97C227.374 70.21 227.236 70.582 227.236 71.086V80.5ZM230.08 73.75H223.096V71.59H230.08V73.75ZM231.265 68.35H233.893V76.234H231.265V68.35ZM232.525 80.698C232.117 80.698 231.763 80.548 231.463 80.248C231.163 79.948 231.013 79.594 231.013 79.186C231.013 78.766 231.163 78.412 231.463 78.124C231.763 77.824 232.117 77.674 232.525 77.674C232.945 77.674 233.299 77.824 233.587 78.124C233.887 78.412 234.037 78.766 234.037 79.186C234.037 79.594 233.887 79.948 233.587 80.248C233.299 80.548 232.945 80.698 232.525 80.698Z" fill="white"/>
</g>
<defs>
<filter id="filter0_bd_176_27377" x="0.299999" y="0.299999" width="312.4" height="156.4" filterUnits="userSpaceOnUse" color-interpolation-filters="sRGB">
<feFlood flood-opacity="0" result="BackgroundImageFix"/>
<feGaussianBlur in="BackgroundImageFix" stdDeviation="7.5"/>
<feComposite in2="SourceAlpha" operator="in" result="effect1_backgroundBlur_176_27377"/>
<feColorMatrix in="SourceAlpha" type="matrix" values="0 0 0 0 0 0 0 0 0 0 0 0 0 0 0 0 0 0 127 0" result="hardAlpha"/>
<feOffset dy="4"/>
<feGaussianBlur stdDeviation="25.85"/>
<feComposite in2="hardAlpha" operator="out"/>
<feColorMatrix type="matrix" values="0 0 0 0 0 0 0 0 0 0 0 0 0 0 0 0 0 0 0.25 0"/>
<feBlend mode="normal" in2="effect1_backgroundBlur_176_27377" result="effect2_dropShadow_176_27377"/>
<feBlend mode="normal" in="SourceGraphic" in2="effect2_dropShadow_176_27377" result="shape"/>
</filter>
<linearGradient id="paint0_linear_176_27377" x1="52" y1="74.5" x2="261" y2="74.5" gradientUnits="userSpaceOnUse">
<stop stop-color="#F9BC60"/>
<stop offset="1" stop-color="#004643"/>
</linearGradient>
</defs>
</svg>
