<svg width="44" height="44" viewBox="0 0 44 44" fill="none" xmlns="http://www.w3.org/2000/svg">
<path d="M2.46254 13.27C0.845988 10.2952 0.0187085 3.57529 0.0187085 3.57529C0.0187085 3.57529 0.227541 2.17778 0.619937 1.5901C1.01233 1.00242 1.57025 0.544361 2.22308 0.273887C2.8759 0.00341329 3.5943 -0.0673144 4.28734 0.0706551C4.98038 0.208625 5.61691 0.54909 6.11638 1.04896L15.558 11.1121C14.984 12.3213 14.6829 13.642 14.6762 14.9805C14.6762 15.1876 14.722 15.3875 14.7349 15.5928L3.68538 3.81179C3.70878 6.49856 4.39051 9.13861 5.67088 11.5008C7.77818 15.5516 10.5445 19.2238 13.8567 22.367L11.2625 24.9703C7.68688 21.5975 4.7111 17.6409 2.46254 13.27ZM23.6724 28.1053L20.8435 30.9378C23.9556 32.3398 27.3657 32.9519 30.771 32.7198L41.309 43.9196L43.9784 41.408L32.1149 28.758C29.2969 29.362 26.3641 29.1353 23.6724 28.1053ZM25.128 24.0555C26.1592 25.0849 27.5567 25.663 29.0138 25.663C30.4708 25.663 31.8684 25.0849 32.8995 24.0555L44.0187 12.9253L41.4337 10.3311L30.3145 21.4631C29.9707 21.8068 29.5045 21.9999 29.0184 21.9999C28.5322 21.9999 28.066 21.8068 27.7222 21.4631L26.4224 20.167L38.8395 7.73879L36.249 5.14463L23.8337 17.5746L22.5394 16.2785C22.3689 16.1082 22.2337 15.906 22.1414 15.6834C22.0492 15.4609 22.0017 15.2223 22.0017 14.9814C22.0017 14.7404 22.0492 14.5019 22.1414 14.2793C22.2337 14.0568 22.3689 13.8546 22.5394 13.6843L33.6585 2.55229L31.0662 -0.0400391L19.947 11.092C18.9176 12.1246 18.3396 13.5233 18.3396 14.9814C18.3396 16.4395 18.9176 17.8381 19.947 18.8708L21.2414 20.167L0.0627085 41.3676L2.65321 43.96L23.8337 22.7593L25.128 24.0555Z" fill="url(#paint0_linear_1828_14137)"/>
<defs>
<linearGradient id="paint0_linear_1828_14137" x1="22.0186" y1="-0.0400391" x2="22.0186" y2="43.96" gradientUnits="userSpaceOnUse">
<stop stop-color="#FF8A65"/>
<stop offset="1" stop-color="#F9BC60"/>
</linearGradient>
</defs>
</svg>
