<svg width="16" height="16" viewBox="0 0 16 16" fill="none" xmlns="http://www.w3.org/2000/svg">
<path d="M16 2.87298C15.405 3.13398 14.771 3.30698 14.11 3.39098C14.79 2.98498 15.309 2.34698 15.553 1.57798C14.919 1.95598 14.219 2.22298 13.473 2.37198C12.871 1.73098 12.013 1.33398 11.077 1.33398C9.261 1.33398 7.799 2.80798 7.799 4.61498C7.799 4.87498 7.821 5.12498 7.875 5.36298C5.148 5.22998 2.735 3.92298 1.114 1.93198C0.831 2.42298 0.665 2.98498 0.665 3.58998C0.665 4.72598 1.25 5.73298 2.122 6.31598C1.595 6.30598 1.078 6.15298 0.64 5.91198C0.64 5.92198 0.64 5.93498 0.64 5.94798C0.64 7.54198 1.777 8.86598 3.268 9.17098C3.001 9.24398 2.71 9.27898 2.408 9.27898C2.198 9.27898 1.986 9.26698 1.787 9.22298C2.212 10.522 3.418 11.477 4.852 11.508C3.736 12.381 2.319 12.907 0.785 12.907C0.516 12.907 0.258 12.895 0 12.862C1.453 13.799 3.175 14.334 5.032 14.334C11.068 14.334 14.368 9.33398 14.368 4.99998C14.368 4.85498 14.363 4.71498 14.356 4.57598C15.007 4.11398 15.554 3.53698 16 2.87298Z" fill="#1E1E1E"/>
</svg>
