<svg width="446" height="145" viewBox="0 0 446 145" fill="none" xmlns="http://www.w3.org/2000/svg">
<g filter="url(#filter0_d_176_27365)">
<g filter="url(#filter1_b_176_27365)">
<rect x="43" y="42" width="351" height="53" rx="22" fill="white" fill-opacity="0.85"/>
</g>
<path d="M72.976 75.234C72.388 75.234 71.89 75.072 71.482 74.748C71.086 74.412 70.786 73.914 70.582 73.254L67.414 62.94H69.286L72.274 72.786C72.346 73.002 72.436 73.164 72.544 73.272C72.652 73.38 72.796 73.434 72.976 73.434C73.156 73.434 73.3 73.38 73.408 73.272C73.528 73.164 73.618 73.002 73.678 72.786L76.63 62.94H78.52L75.352 73.254C75.148 73.914 74.842 74.412 74.434 74.748C74.038 75.072 73.552 75.234 72.976 75.234ZM82.627 75.198C81.739 75.198 80.941 75 80.233 74.604C79.525 74.196 78.967 73.644 78.559 72.948C78.151 72.24 77.947 71.436 77.947 70.536C77.947 69.696 78.133 68.928 78.505 68.232C78.877 67.524 79.399 66.966 80.071 66.558C80.743 66.138 81.523 65.928 82.411 65.928C83.299 65.928 84.061 66.126 84.697 66.522C85.345 66.906 85.843 67.434 86.191 68.106C86.551 68.766 86.731 69.504 86.731 70.32V71.04H79.333L79.657 70.32C79.621 70.944 79.723 71.502 79.963 71.994C80.203 72.486 80.551 72.882 81.007 73.182C81.463 73.47 81.997 73.614 82.609 73.614C83.161 73.614 83.659 73.494 84.103 73.254C84.559 73.014 84.919 72.654 85.183 72.174L86.551 72.876C86.167 73.632 85.633 74.208 84.949 74.604C84.265 75 83.491 75.198 82.627 75.198ZM79.747 69.888H84.949C84.925 69.42 84.799 69.006 84.571 68.646C84.355 68.286 84.055 68.01 83.671 67.818C83.299 67.626 82.873 67.53 82.393 67.53C81.901 67.53 81.463 67.632 81.079 67.836C80.707 68.04 80.407 68.322 80.179 68.682C79.963 69.042 79.819 69.444 79.747 69.888ZM88.3185 66.18H90.1005V75.738C90.1005 76.422 89.9625 77.022 89.6865 77.538C89.4225 78.054 89.0265 78.462 88.4985 78.762C87.9825 79.062 87.3405 79.212 86.5725 79.212L86.5005 77.52C87.0885 77.52 87.5385 77.346 87.8505 76.998C88.1625 76.65 88.3185 76.212 88.3185 75.684V66.18ZM89.2185 64.434C89.0145 64.434 88.8225 64.386 88.6425 64.29C88.4625 64.182 88.3185 64.038 88.2105 63.858C88.1025 63.678 88.0485 63.48 88.0485 63.264C88.0485 63.048 88.1025 62.85 88.2105 62.67C88.3185 62.49 88.4625 62.346 88.6425 62.238C88.8225 62.13 89.0145 62.076 89.2185 62.076C89.4345 62.076 89.6265 62.13 89.7945 62.238C89.9745 62.346 90.1125 62.49 90.2085 62.67C90.3165 62.85 90.3705 63.048 90.3705 63.264C90.3705 63.48 90.3165 63.678 90.2085 63.858C90.1125 64.038 89.9745 64.182 89.7945 64.29C89.6265 64.386 89.4345 64.434 89.2185 64.434ZM95.8738 75.198C94.9858 75.198 94.1878 75 93.4798 74.604C92.7718 74.196 92.2138 73.644 91.8058 72.948C91.3978 72.24 91.1938 71.436 91.1938 70.536C91.1938 69.696 91.3798 68.928 91.7518 68.232C92.1238 67.524 92.6458 66.966 93.3178 66.558C93.9898 66.138 94.7698 65.928 95.6578 65.928C96.5458 65.928 97.3078 66.126 97.9438 66.522C98.5918 66.906 99.0898 67.434 99.4378 68.106C99.7978 68.766 99.9778 69.504 99.9778 70.32V71.04H92.5798L92.9038 70.32C92.8678 70.944 92.9698 71.502 93.2098 71.994C93.4498 72.486 93.7978 72.882 94.2538 73.182C94.7098 73.47 95.2438 73.614 95.8558 73.614C96.4078 73.614 96.9058 73.494 97.3498 73.254C97.8058 73.014 98.1658 72.654 98.4298 72.174L99.7978 72.876C99.4138 73.632 98.8798 74.208 98.1958 74.604C97.5118 75 96.7378 75.198 95.8738 75.198ZM92.9938 69.888H98.1958C98.1718 69.42 98.0458 69.006 97.8178 68.646C97.6018 68.286 97.3018 68.01 96.9178 67.818C96.5458 67.626 96.1198 67.53 95.6398 67.53C95.1478 67.53 94.7098 67.632 94.3258 67.836C93.9538 68.04 93.6538 68.322 93.4258 68.682C93.2098 69.042 93.0658 69.444 92.9938 69.888ZM105.219 75.234C104.499 75.234 103.887 75.09 103.383 74.802C102.879 74.514 102.495 74.118 102.231 73.614C101.979 73.098 101.853 72.504 101.853 71.832V63.894H103.635V71.778C103.635 72.354 103.791 72.804 104.103 73.128C104.427 73.452 104.853 73.614 105.381 73.614C105.669 73.614 105.957 73.566 106.245 73.47C106.545 73.374 106.803 73.248 107.019 73.092V74.73C106.791 74.874 106.515 74.994 106.191 75.09C105.867 75.186 105.543 75.234 105.219 75.234ZM107.019 67.728H100.107V66.18H107.019V67.728ZM112.338 75.198C111.45 75.198 110.652 75 109.944 74.604C109.236 74.196 108.678 73.644 108.27 72.948C107.862 72.24 107.658 71.436 107.658 70.536C107.658 69.696 107.844 68.928 108.216 68.232C108.588 67.524 109.11 66.966 109.782 66.558C110.454 66.138 111.234 65.928 112.122 65.928C113.01 65.928 113.772 66.126 114.408 66.522C115.056 66.906 115.554 67.434 115.902 68.106C116.262 68.766 116.441 69.504 116.441 70.32V71.04H109.044L109.368 70.32C109.332 70.944 109.434 71.502 109.674 71.994C109.914 72.486 110.262 72.882 110.718 73.182C111.174 73.47 111.708 73.614 112.32 73.614C112.872 73.614 113.37 73.494 113.814 73.254C114.27 73.014 114.63 72.654 114.894 72.174L116.262 72.876C115.878 73.632 115.344 74.208 114.66 74.604C113.976 75 113.202 75.198 112.338 75.198ZM109.458 69.888H114.66C114.636 69.42 114.51 69.006 114.282 68.646C114.066 68.286 113.766 68.01 113.382 67.818C113.01 67.626 112.584 67.53 112.104 67.53C111.612 67.53 111.174 67.632 110.79 67.836C110.418 68.04 110.118 68.322 109.89 68.682C109.674 69.042 109.53 69.444 109.458 69.888ZM119.451 75H117.669V69.744C117.669 69.024 117.801 68.382 118.065 67.818C118.341 67.254 118.737 66.81 119.253 66.486C119.781 66.162 120.429 66 121.197 66C121.485 66 121.761 66.03 122.025 66.09C122.301 66.138 122.553 66.216 122.781 66.324V68.088C122.565 67.956 122.331 67.86 122.079 67.8C121.839 67.74 121.599 67.71 121.359 67.71C120.771 67.71 120.303 67.902 119.955 68.286C119.619 68.658 119.451 69.168 119.451 69.816V75ZM127.481 79.284C126.545 79.284 125.705 79.086 124.961 78.69C124.229 78.294 123.665 77.706 123.269 76.926L124.745 76.116C125.009 76.596 125.375 76.968 125.843 77.232C126.311 77.496 126.845 77.628 127.445 77.628C128.069 77.628 128.591 77.484 129.011 77.196C129.431 76.908 129.749 76.512 129.965 76.008C130.181 75.516 130.289 74.952 130.289 74.316V72.372L130.739 71.958C130.679 72.582 130.517 73.134 130.253 73.614C129.989 74.082 129.629 74.454 129.173 74.73C128.717 74.994 128.159 75.126 127.499 75.126C126.599 75.126 125.849 74.94 125.249 74.568C124.661 74.196 124.217 73.686 123.917 73.038C123.629 72.378 123.485 71.616 123.485 70.752V66.18H125.249V70.662C125.249 71.49 125.459 72.162 125.879 72.678C126.299 73.194 126.911 73.452 127.715 73.452C128.231 73.452 128.681 73.326 129.065 73.074C129.449 72.81 129.743 72.456 129.947 72.012C130.163 71.556 130.271 71.064 130.271 70.536V66.18H132.071V74.298C132.071 75.282 131.885 76.146 131.513 76.89C131.153 77.646 130.625 78.234 129.929 78.654C129.245 79.074 128.429 79.284 127.481 79.284ZM137.792 75.216C136.94 75.216 136.178 75.006 135.506 74.586C134.846 74.166 134.324 73.608 133.94 72.912C133.556 72.204 133.364 71.424 133.364 70.572C133.364 69.732 133.568 68.964 133.976 68.268C134.396 67.56 134.96 67.002 135.668 66.594C136.376 66.174 137.174 65.964 138.062 65.964C138.95 65.964 139.748 66.168 140.456 66.576C141.164 66.972 141.722 67.518 142.13 68.214C142.55 68.91 142.76 69.696 142.76 70.572V75H141.068V71.706L141.68 71.238C141.68 71.982 141.512 72.654 141.176 73.254C140.852 73.854 140.396 74.334 139.808 74.694C139.232 75.042 138.56 75.216 137.792 75.216ZM138.062 73.524C138.614 73.524 139.112 73.392 139.556 73.128C140 72.864 140.348 72.51 140.6 72.066C140.852 71.61 140.978 71.118 140.978 70.59C140.978 70.05 140.852 69.558 140.6 69.114C140.348 68.67 140 68.316 139.556 68.052C139.112 67.776 138.614 67.638 138.062 67.638C137.51 67.638 137.012 67.776 136.568 68.052C136.136 68.316 135.788 68.67 135.524 69.114C135.272 69.558 135.146 70.05 135.146 70.59C135.146 71.118 135.272 71.61 135.524 72.066C135.788 72.51 136.136 72.864 136.568 73.128C137.012 73.392 137.51 73.524 138.062 73.524ZM148.786 67.674C148.21 67.674 147.73 67.818 147.346 68.106C146.962 68.394 146.674 68.766 146.482 69.222C146.29 69.678 146.194 70.182 146.194 70.734V75H144.412V70.554C144.412 69.69 144.58 68.916 144.916 68.232C145.252 67.536 145.744 66.984 146.392 66.576C147.04 66.168 147.838 65.964 148.786 65.964C149.758 65.964 150.568 66.168 151.216 66.576C151.876 66.984 152.374 67.536 152.71 68.232C153.058 68.916 153.232 69.684 153.232 70.536V75H151.45V70.752C151.45 70.2 151.348 69.696 151.144 69.24C150.952 68.772 150.658 68.394 150.262 68.106C149.878 67.818 149.386 67.674 148.786 67.674ZM169.558 75H167.29L163.96 71.094C163.672 70.734 163.456 70.38 163.312 70.032C163.168 69.684 163.096 69.342 163.096 69.006C163.096 68.658 163.162 68.31 163.294 67.962C163.438 67.614 163.66 67.26 163.96 66.9L167.326 62.94H169.432L165.652 67.44C165.412 67.74 165.226 68.01 165.094 68.25C164.974 68.49 164.914 68.724 164.914 68.952C164.914 69.18 164.974 69.408 165.094 69.636C165.226 69.864 165.412 70.128 165.652 70.428L169.558 75ZM161.494 75H159.658V62.94H161.494V75ZM163.96 68.142V69.834H160.828V68.142H163.96ZM173.532 75.216C172.68 75.216 171.918 75.006 171.246 74.586C170.586 74.166 170.064 73.608 169.68 72.912C169.296 72.204 169.104 71.424 169.104 70.572C169.104 69.732 169.308 68.964 169.716 68.268C170.136 67.56 170.7 67.002 171.408 66.594C172.116 66.174 172.914 65.964 173.802 65.964C174.69 65.964 175.488 66.168 176.196 66.576C176.904 66.972 177.462 67.518 177.87 68.214C178.29 68.91 178.5 69.696 178.5 70.572V75H176.808V71.706L177.42 71.238C177.42 71.982 177.252 72.654 176.916 73.254C176.592 73.854 176.136 74.334 175.548 74.694C174.972 75.042 174.3 75.216 173.532 75.216ZM173.802 73.524C174.354 73.524 174.852 73.392 175.296 73.128C175.74 72.864 176.088 72.51 176.34 72.066C176.592 71.61 176.718 71.118 176.718 70.59C176.718 70.05 176.592 69.558 176.34 69.114C176.088 68.67 175.74 68.316 175.296 68.052C174.852 67.776 174.354 67.638 173.802 67.638C173.25 67.638 172.752 67.776 172.308 68.052C171.876 68.316 171.528 68.67 171.264 69.114C171.012 69.558 170.886 70.05 170.886 70.59C170.886 71.118 171.012 71.61 171.264 72.066C171.528 72.51 171.876 72.864 172.308 73.128C172.752 73.392 173.25 73.524 173.802 73.524ZM182.294 75H180.512V62.13H182.294V68.862H181.484C181.544 68.334 181.742 67.848 182.078 67.404C182.426 66.96 182.87 66.612 183.41 66.36C183.962 66.096 184.568 65.964 185.228 65.964C186.092 65.964 186.824 66.15 187.424 66.522C188.036 66.882 188.498 67.392 188.81 68.052C189.122 68.712 189.278 69.492 189.278 70.392V75H187.496V70.572C187.496 70.044 187.4 69.564 187.208 69.132C187.016 68.688 186.728 68.334 186.344 68.07C185.972 67.794 185.51 67.656 184.958 67.656C184.442 67.656 183.98 67.782 183.572 68.034C183.164 68.286 182.846 68.64 182.618 69.096C182.402 69.54 182.294 70.05 182.294 70.626V75ZM192.512 73.848L189.668 66.18H191.576L194.168 73.362C194.168 73.41 194.186 73.452 194.222 73.488C194.27 73.512 194.318 73.524 194.366 73.524C194.426 73.524 194.474 73.512 194.51 73.488C194.546 73.452 194.57 73.41 194.582 73.362L197.174 66.18H199.064L196.202 73.848C196.034 74.304 195.794 74.652 195.482 74.892C195.17 75.12 194.798 75.234 194.366 75.234C193.946 75.234 193.574 75.12 193.25 74.892C192.926 74.652 192.68 74.304 192.512 73.848ZM203.369 75.216C202.517 75.216 201.755 75.006 201.083 74.586C200.423 74.166 199.901 73.608 199.517 72.912C199.133 72.204 198.941 71.424 198.941 70.572C198.941 69.732 199.145 68.964 199.553 68.268C199.973 67.56 200.537 67.002 201.245 66.594C201.953 66.174 202.751 65.964 203.639 65.964C204.527 65.964 205.325 66.168 206.033 66.576C206.741 66.972 207.299 67.518 207.707 68.214C208.127 68.91 208.337 69.696 208.337 70.572V75H206.645V71.706L207.257 71.238C207.257 71.982 207.089 72.654 206.753 73.254C206.429 73.854 205.973 74.334 205.385 74.694C204.809 75.042 204.137 75.216 203.369 75.216ZM203.639 73.524C204.191 73.524 204.689 73.392 205.133 73.128C205.577 72.864 205.925 72.51 206.177 72.066C206.429 71.61 206.555 71.118 206.555 70.59C206.555 70.05 206.429 69.558 206.177 69.114C205.925 68.67 205.577 68.316 205.133 68.052C204.689 67.776 204.191 67.638 203.639 67.638C203.087 67.638 202.589 67.776 202.145 68.052C201.713 68.316 201.365 68.67 201.101 69.114C200.849 69.558 200.723 70.05 200.723 70.59C200.723 71.118 200.849 71.61 201.101 72.066C201.365 72.51 201.713 72.864 202.145 73.128C202.589 73.392 203.087 73.524 203.639 73.524ZM210.349 62.13H212.131V75H210.349V62.13ZM218.148 75.234C217.428 75.234 216.816 75.09 216.312 74.802C215.808 74.514 215.424 74.118 215.16 73.614C214.908 73.098 214.782 72.504 214.782 71.832V63.894H216.564V71.778C216.564 72.354 216.72 72.804 217.032 73.128C217.356 73.452 217.782 73.614 218.31 73.614C218.598 73.614 218.886 73.566 219.174 73.47C219.474 73.374 219.732 73.248 219.948 73.092V74.73C219.72 74.874 219.444 74.994 219.12 75.09C218.796 75.186 218.472 75.234 218.148 75.234ZM219.948 67.728H213.036V66.18H219.948V67.728ZM221.698 66.18H223.48V75H221.698V66.18ZM235.368 75.216C234.492 75.216 233.676 75.06 232.92 74.748C232.176 74.424 231.522 73.98 230.958 73.416C230.394 72.852 229.95 72.192 229.625 71.436C229.314 70.668 229.158 69.84 229.158 68.952C229.158 68.076 229.314 67.266 229.625 66.522C229.95 65.766 230.394 65.106 230.958 64.542C231.522 63.978 232.176 63.54 232.92 63.228C233.676 62.904 234.492 62.742 235.368 62.742C236.244 62.742 237.054 62.904 237.798 63.228C238.542 63.54 239.196 63.978 239.76 64.542C240.324 65.106 240.762 65.766 241.074 66.522C241.386 67.266 241.542 68.076 241.542 68.952C241.542 69.84 241.386 70.668 241.074 71.436C240.762 72.192 240.324 72.852 239.76 73.416C239.196 73.98 238.542 74.424 237.798 74.748C237.054 75.06 236.244 75.216 235.368 75.216ZM235.368 73.47C235.956 73.47 236.508 73.356 237.024 73.128C237.552 72.888 238.014 72.564 238.41 72.156C238.806 71.748 239.112 71.274 239.328 70.734C239.544 70.182 239.652 69.588 239.652 68.952C239.652 68.328 239.544 67.746 239.328 67.206C239.112 66.666 238.806 66.192 238.41 65.784C238.014 65.376 237.558 65.058 237.042 64.83C236.526 64.602 235.968 64.488 235.368 64.488C234.768 64.488 234.204 64.602 233.676 64.83C233.148 65.058 232.686 65.376 232.29 65.784C231.906 66.192 231.6 66.666 231.372 67.206C231.156 67.746 231.048 68.328 231.048 68.952C231.048 69.588 231.156 70.182 231.372 70.734C231.6 71.274 231.906 71.748 232.29 72.156C232.686 72.564 233.148 72.888 233.676 73.128C234.204 73.356 234.768 73.47 235.368 73.47ZM233.388 61.104C233.076 61.104 232.812 61.002 232.596 60.798C232.392 60.582 232.29 60.318 232.29 60.006C232.29 59.706 232.392 59.454 232.596 59.25C232.812 59.034 233.076 58.926 233.388 58.926C233.676 58.926 233.922 59.034 234.126 59.25C234.342 59.454 234.45 59.706 234.45 60.006C234.45 60.318 234.342 60.582 234.126 60.798C233.922 61.002 233.676 61.104 233.388 61.104ZM237.33 61.104C237.042 61.104 236.79 61.002 236.574 60.798C236.358 60.582 236.25 60.318 236.25 60.006C236.25 59.706 236.358 59.454 236.574 59.25C236.79 59.034 237.042 58.926 237.33 58.926C237.63 58.926 237.882 59.034 238.086 59.25C238.302 59.454 238.41 59.706 238.41 60.006C238.41 60.318 238.302 60.582 238.086 60.798C237.882 61.002 237.63 61.104 237.33 61.104ZM247.023 67.674C246.447 67.674 245.967 67.818 245.583 68.106C245.199 68.394 244.911 68.766 244.719 69.222C244.527 69.678 244.431 70.182 244.431 70.734V75H242.649V70.554C242.649 69.69 242.817 68.916 243.153 68.232C243.489 67.536 243.981 66.984 244.629 66.576C245.277 66.168 246.075 65.964 247.023 65.964C247.995 65.964 248.805 66.168 249.453 66.576C250.113 66.984 250.611 67.536 250.947 68.232C251.295 68.916 251.469 69.684 251.469 70.536V75H249.687V70.752C249.687 70.2 249.585 69.696 249.381 69.24C249.189 68.772 248.895 68.394 248.499 68.106C248.115 67.818 247.623 67.674 247.023 67.674ZM257.245 75.198C256.357 75.198 255.559 75 254.851 74.604C254.143 74.196 253.585 73.644 253.177 72.948C252.769 72.24 252.565 71.436 252.565 70.536C252.565 69.696 252.751 68.928 253.123 68.232C253.495 67.524 254.017 66.966 254.689 66.558C255.361 66.138 256.141 65.928 257.029 65.928C257.917 65.928 258.679 66.126 259.315 66.522C259.963 66.906 260.461 67.434 260.809 68.106C261.169 68.766 261.349 69.504 261.349 70.32V71.04H253.951L254.275 70.32C254.239 70.944 254.341 71.502 254.581 71.994C254.821 72.486 255.169 72.882 255.625 73.182C256.081 73.47 256.615 73.614 257.227 73.614C257.779 73.614 258.277 73.494 258.721 73.254C259.177 73.014 259.537 72.654 259.801 72.174L261.169 72.876C260.785 73.632 260.251 74.208 259.567 74.604C258.883 75 258.109 75.198 257.245 75.198ZM254.365 69.888H259.567C259.543 69.42 259.417 69.006 259.189 68.646C258.973 68.286 258.673 68.01 258.289 67.818C257.917 67.626 257.491 67.53 257.011 67.53C256.519 67.53 256.081 67.632 255.697 67.836C255.325 68.04 255.025 68.322 254.797 68.682C254.581 69.042 254.437 69.444 254.365 69.888ZM264.358 75H262.576V69.744C262.576 69.024 262.708 68.382 262.972 67.818C263.248 67.254 263.644 66.81 264.16 66.486C264.688 66.162 265.336 66 266.104 66C266.392 66 266.668 66.03 266.932 66.09C267.208 66.138 267.46 66.216 267.688 66.324V68.088C267.472 67.956 267.238 67.86 266.986 67.8C266.746 67.74 266.506 67.71 266.266 67.71C265.678 67.71 265.21 67.902 264.862 68.286C264.526 68.658 264.358 69.168 264.358 69.816V75ZM268.188 66.18H269.97V75H268.188V66.18ZM269.07 64.434C268.866 64.434 268.674 64.386 268.494 64.29C268.314 64.182 268.17 64.038 268.062 63.858C267.954 63.678 267.9 63.48 267.9 63.264C267.9 63.048 267.954 62.85 268.062 62.67C268.17 62.49 268.314 62.346 268.494 62.238C268.674 62.13 268.866 62.076 269.07 62.076C269.286 62.076 269.478 62.13 269.646 62.238C269.826 62.346 269.964 62.49 270.06 62.67C270.168 62.85 270.222 63.048 270.222 63.264C270.222 63.48 270.168 63.678 270.06 63.858C269.964 64.038 269.826 64.182 269.646 64.29C269.478 64.386 269.286 64.434 269.07 64.434ZM272.245 62.13H274.027V75H272.245V62.13ZM280.152 75.198C279.264 75.198 278.466 75 277.758 74.604C277.05 74.196 276.492 73.644 276.084 72.948C275.676 72.24 275.472 71.436 275.472 70.536C275.472 69.696 275.658 68.928 276.03 68.232C276.402 67.524 276.924 66.966 277.596 66.558C278.268 66.138 279.048 65.928 279.936 65.928C280.824 65.928 281.586 66.126 282.222 66.522C282.87 66.906 283.368 67.434 283.716 68.106C284.076 68.766 284.256 69.504 284.256 70.32V71.04H276.858L277.182 70.32C277.146 70.944 277.248 71.502 277.488 71.994C277.728 72.486 278.076 72.882 278.532 73.182C278.988 73.47 279.522 73.614 280.134 73.614C280.686 73.614 281.184 73.494 281.628 73.254C282.084 73.014 282.444 72.654 282.708 72.174L284.076 72.876C283.692 73.632 283.158 74.208 282.474 74.604C281.79 75 281.016 75.198 280.152 75.198ZM277.272 69.888H282.474C282.45 69.42 282.324 69.006 282.096 68.646C281.88 68.286 281.58 68.01 281.196 67.818C280.824 67.626 280.398 67.53 279.918 67.53C279.426 67.53 278.988 67.632 278.604 67.836C278.232 68.04 277.932 68.322 277.704 68.682C277.488 69.042 277.344 69.444 277.272 69.888ZM287.266 75H285.484V69.744C285.484 69.024 285.616 68.382 285.88 67.818C286.156 67.254 286.552 66.81 287.068 66.486C287.596 66.162 288.244 66 289.012 66C289.3 66 289.576 66.03 289.84 66.09C290.116 66.138 290.368 66.216 290.596 66.324V68.088C290.38 67.956 290.146 67.86 289.894 67.8C289.654 67.74 289.414 67.71 289.174 67.71C288.586 67.71 288.118 67.902 287.77 68.286C287.434 68.658 287.266 69.168 287.266 69.816V75ZM291.096 66.18H292.878V75H291.096V66.18ZM291.978 64.434C291.774 64.434 291.582 64.386 291.402 64.29C291.222 64.182 291.078 64.038 290.97 63.858C290.862 63.678 290.808 63.48 290.808 63.264C290.808 63.048 290.862 62.85 290.97 62.67C291.078 62.49 291.222 62.346 291.402 62.238C291.582 62.13 291.774 62.076 291.978 62.076C292.194 62.076 292.386 62.13 292.554 62.238C292.734 62.346 292.872 62.49 292.968 62.67C293.076 62.85 293.13 63.048 293.13 63.264C293.13 63.48 293.076 63.678 292.968 63.858C292.872 64.038 292.734 64.182 292.554 64.29C292.386 64.386 292.194 64.434 291.978 64.434Z" fill="#14142B"/>
<g filter="url(#filter2_b_176_27365)">
<rect x="325" y="39" width="78" height="59" rx="18" fill="#F9BC60" fill-opacity="0.7"/>
</g>
<mask id="mask0_176_27365" style="mask-type:luminance" maskUnits="userSpaceOnUse" x="344" y="49" width="40" height="40">
<path d="M344 49H384V89H344V49Z" fill="white"/>
</mask>
<g mask="url(#mask0_176_27365)">
<path d="M353.185 60.4542C352.13 61.3378 350.267 62.1531 348.362 62.2971C346.595 62.434 344.526 62.0092 344.3 62.6668C344.266 62.7696 344.273 62.8861 344.341 63.03C344.903 64.2904 348.246 63.763 350.445 64.9821C353.849 66.8726 354.404 72.9763 354.671 75.97C354.863 78.0727 354.87 81.3266 355.486 81.3882C355.575 81.3952 355.651 81.3404 355.685 81.3129C356.418 80.7239 356.781 68.8866 358.733 66.448C359.199 65.8658 359.898 64.8656 361.199 64.1122C363.617 62.7079 366.563 62.9547 366.618 62.2285C366.625 62.1736 366.611 62.1052 366.536 61.9887C365.748 60.8175 362.761 61.6666 361.055 60.7077C357.788 58.8718 356.973 49.1379 356.788 49.0488C356.671 48.9939 356.603 48.9939 356.521 49.0076C354.979 49.2199 356.959 57.2827 353.185 60.4542Z" fill="#14142B"/>
<path d="M374.79 60.4266C373.509 59.3237 371.29 60.0841 370.119 58.6798C370.002 58.5426 369.934 58.4193 369.947 58.2894C370.029 57.4674 373.126 58.125 374.749 56.6246C376.873 54.6585 375.544 49.843 376.503 49.6923C376.571 49.6785 376.626 49.6993 376.722 49.7334C378.27 50.316 376.729 54.8437 378.688 56.3919C379.784 57.2548 381.866 57.0974 383.12 58.1866C383.195 58.2482 383.298 58.351 383.291 58.4742C383.257 59.1184 380.373 58.6045 378.756 59.9743C376.496 61.8925 377.462 66.8521 376.804 66.8795C376.791 66.8795 376.763 66.8795 376.715 66.8521C375.592 66.2628 376.565 61.9609 374.79 60.4266Z" fill="#E16162"/>
<path d="M368.707 74.4354C370.967 72.627 369.303 67.3524 370.961 66.9208C371.05 66.9001 371.132 66.8796 371.235 66.9001C372.536 67.2081 370.611 73.209 372.995 75.223C374.948 76.867 379.195 75.3462 379.366 76.189C379.38 76.2369 379.366 76.278 379.352 76.3329C379.092 77.463 376.085 77.3877 374.359 78.4836C370.701 80.8127 371.865 89.0057 370.79 89.0057C370.769 89.0057 370.748 88.9986 370.707 88.9849C368.899 88.4368 370.632 81.8198 367.57 78.8877C365.597 77.004 362.001 76.9972 362.09 76.0108C362.09 75.9767 362.104 75.908 362.172 75.7915C363.022 74.3598 366.817 75.9562 368.707 74.4354Z" fill="#F8F5F2"/>
</g>
</g>
<defs>
<filter id="filter0_d_176_27365" x="0.0999985" y="-2.9" width="445.8" height="163.8" filterUnits="userSpaceOnUse" color-interpolation-filters="sRGB">
<feFlood flood-opacity="0" result="BackgroundImageFix"/>
<feColorMatrix in="SourceAlpha" type="matrix" values="0 0 0 0 0 0 0 0 0 0 0 0 0 0 0 0 0 0 127 0" result="hardAlpha"/>
<feOffset dy="4"/>
<feGaussianBlur stdDeviation="21.45"/>
<feComposite in2="hardAlpha" operator="out"/>
<feColorMatrix type="matrix" values="0 0 0 0 0 0 0 0 0 0 0 0 0 0 0 0 0 0 0.25 0"/>
<feBlend mode="normal" in2="BackgroundImageFix" result="effect1_dropShadow_176_27365"/>
<feBlend mode="normal" in="SourceGraphic" in2="effect1_dropShadow_176_27365" result="shape"/>
</filter>
<filter id="filter1_b_176_27365" x="28" y="27" width="381" height="83" filterUnits="userSpaceOnUse" color-interpolation-filters="sRGB">
<feFlood flood-opacity="0" result="BackgroundImageFix"/>
<feGaussianBlur in="BackgroundImageFix" stdDeviation="7.5"/>
<feComposite in2="SourceAlpha" operator="in" result="effect1_backgroundBlur_176_27365"/>
<feBlend mode="normal" in="SourceGraphic" in2="effect1_backgroundBlur_176_27365" result="shape"/>
</filter>
<filter id="filter2_b_176_27365" x="310" y="24" width="108" height="89" filterUnits="userSpaceOnUse" color-interpolation-filters="sRGB">
<feFlood flood-opacity="0" result="BackgroundImageFix"/>
<feGaussianBlur in="BackgroundImageFix" stdDeviation="7.5"/>
<feComposite in2="SourceAlpha" operator="in" result="effect1_backgroundBlur_176_27365"/>
<feBlend mode="normal" in="SourceGraphic" in2="effect1_backgroundBlur_176_27365" result="shape"/>
</filter>
</defs>
</svg>
