<svg width="16" height="16" viewBox="0 0 16 16" fill="none" xmlns="http://www.w3.org/2000/svg">
<path fill-rule="evenodd" clip-rule="evenodd" d="M13.456 2.75802C14.415 2.81202 14.886 2.95402 15.32 3.72602C15.772 4.49702 16 5.82502 16 8.16402V8.16702V8.17202C16 10.5 15.772 11.838 15.321 12.601C14.887 13.373 14.416 13.513 13.457 13.578C12.498 13.633 10.089 13.666 8.002 13.666C5.911 13.666 3.501 13.633 2.543 13.577C1.586 13.512 1.115 13.372 0.677 12.6C0.23 11.837 0 10.499 0 8.17102V8.16902V8.16602V8.16302C0 5.82502 0.23 4.49702 0.677 3.72602C1.115 2.95302 1.587 2.81202 2.544 2.75702C3.501 2.69302 5.911 2.66602 8.002 2.66602C10.089 2.66602 12.498 2.69302 13.456 2.75802ZM11 8.16602L6 5.16602V11.166L11 8.16602Z" fill="#1E1E1E"/>
</svg>
