<svg width="172" height="344" viewBox="0 0 172 344" fill="none" xmlns="http://www.w3.org/2000/svg">
<g clip-path="url(#clip0_176_27385)">
<path d="M-142.267 115.262C-139.525 115.692 -137.022 115.662 -134.279 115.207C-131.315 114.716 -127.959 113.427 -124.96 114.243C-120.895 115.345 -119.069 120.179 -117.593 123.683C-113.732 132.876 -109.867 142.05 -99.3143 144.911C-71.9342 152.32 -58.5075 118.178 -45.1945 101.453C-36.962 91.1104 -26.1607 83.9609 -13.1199 81.3132C-1.66019 78.9834 13.3565 80.0681 22.2901 88.4816C33.233 98.7995 26.435 114.774 19.4062 125.121C11.8331 136.272 3.23725 146.721 -4.36244 157.88C-11.947 169.024 -19.0142 180.556 -24.9631 192.656C-30.2693 203.433 -37.0277 216.318 -36.1611 228.696C-35.3567 240.236 -27.7448 250.315 -17.6883 255.658C-7.08198 261.303 5.6829 261.266 16.9591 257.749C39.4406 250.735 55.0475 231.82 66.4541 212.161C72.5195 201.71 77.6941 190.78 83.0749 179.962C87.7703 170.518 93.358 155.965 105.608 154.924C129.789 152.868 109.484 212.484 105.107 222.951C100.858 233.101 95.1904 245.34 103.984 254.853C113.291 264.908 124.724 256.035 132.432 248.702C137.113 244.246 141.09 239.158 144.572 233.725C147.781 228.708 139.662 224.299 136.474 229.29C132.995 234.732 128.831 239.673 123.986 243.965C119.921 247.568 113.232 253.977 109.456 246.75C106.726 241.526 109.897 235.096 111.985 230.224C114.641 224.041 117.07 217.771 119.058 211.34C122.762 199.329 125.132 186.833 126.007 174.292C126.771 163.409 124.589 150.184 112.576 146.509C88.2109 139.047 76.7559 172.035 68.6631 188.253C58.6743 208.287 47.5023 229.802 28.1236 242.297C17.8202 248.945 4.95093 253.101 -7.26656 249.909C-18.8996 246.873 -28.3365 236.211 -26.843 223.779C-25.3622 211.532 -18.2368 199.146 -12.43 188.502C-5.96719 176.647 1.45142 165.329 9.28428 154.343C22.0547 136.421 47.651 111.363 33.2505 87.4714C20.7566 66.7456 -11.5203 68.3875 -30.4437 77.5359C-43.6267 83.9096 -52.4775 95.0009 -60.336 106.985C-67.3915 117.735 -75.4696 133.872 -89.5594 136.288C-95.4146 137.287 -101.127 135.484 -104.39 130.377C-107.272 125.88 -108.703 120.622 -111.073 115.87C-113.278 111.454 -116.506 107.52 -121.256 105.782C-127.785 103.39 -133.622 107.319 -140.042 106.319C-145.878 105.408 -148.156 114.367 -142.282 115.276L-142.267 115.262Z" fill="url(#paint0_linear_176_27385)"/>
</g>
<defs>
<linearGradient id="paint0_linear_176_27385" x1="-28.7688" y1="73.2905" x2="32.682" y2="283.529" gradientUnits="userSpaceOnUse">
<stop stop-color="#2E7364"/>
<stop offset="1" stop-color="#C39F84"/>
</linearGradient>
<clipPath id="clip0_176_27385">
<rect width="277.016" height="277.016" fill="white" transform="translate(171.608 265.891) rotate(163.707)"/>
</clipPath>
</defs>
</svg>
