<svg width="212" height="219" viewBox="0 0 212 219" fill="none" xmlns="http://www.w3.org/2000/svg">
<path d="M40.3048 304.247C40.9359 301.308 41.0562 298.601 40.73 295.607C40.3788 292.372 39.1888 288.665 40.2535 285.472C41.6912 281.144 47.0291 279.462 50.9065 278.078C61.0819 274.461 71.2355 270.839 74.9689 259.602C84.6403 230.446 48.5384 213.858 31.262 198.448C20.5778 188.919 13.5023 176.806 11.4305 162.545C9.60638 150.013 11.69 133.842 21.3292 124.692C33.1494 113.486 50.0101 121.805 60.7718 130.033C72.3694 138.898 83.1465 148.826 94.7509 157.72C106.341 166.597 118.382 174.938 131.104 182.104C142.435 188.495 155.957 196.585 169.393 196.398C181.92 196.228 193.28 188.609 199.668 178.06C206.415 166.934 207.149 153.129 204.03 140.723C197.81 115.989 178.304 97.9666 157.739 84.4406C146.807 77.2484 135.302 70.9902 123.931 64.5159C114.005 58.8662 98.6076 51.9416 98.2251 38.6328C97.469 12.3621 160.698 37.9335 171.75 43.3012C182.467 48.5105 195.357 55.3812 206.177 46.4504C217.613 36.9962 208.712 24.0962 201.252 15.3171C196.717 9.98516 191.457 5.37611 185.793 1.28186C180.563 -2.49226 175.303 6.01926 180.507 9.76868C186.181 13.8607 191.27 18.6634 195.617 24.162C199.266 28.7758 205.791 36.3968 197.747 40.0421C191.933 42.6766 185.173 38.8576 180.032 36.3051C173.507 33.0577 166.874 30.051 160.042 27.5115C147.279 22.7776 133.911 19.4574 120.404 17.7505C108.683 16.2649 94.2514 17.8221 89.5489 30.5879C80.0021 56.4809 114.976 70.8677 132.022 80.602C153.079 92.6176 175.664 106.003 187.999 127.714C194.563 139.258 198.276 153.425 194.083 166.442C190.095 178.837 177.995 188.394 164.642 186.025C151.49 183.681 138.529 175.225 127.373 168.301C114.945 160.594 103.158 151.886 91.7545 142.75C73.15 127.854 47.6083 98.6581 20.9017 112.78C-2.26631 125.032 -2.4487 160.032 6.29536 181.048C12.3875 195.689 23.8434 205.932 36.3253 215.156C47.5202 223.437 64.4791 233.15 66.2363 248.531C66.9619 254.923 64.6657 260.99 58.9457 264.209C53.9087 267.053 48.1369 268.281 42.8547 270.556C37.9463 272.672 33.4968 275.923 31.3294 280.954C28.3471 287.869 32.2405 294.418 30.77 301.299C29.4312 307.554 38.9796 310.561 40.3191 304.265L40.3048 304.247Z" fill="url(#paint0_linear_176_27384)"/>
<defs>
<linearGradient id="paint0_linear_176_27384" x1="87.1531" y1="22.2641" x2="147.512" y2="282.001" gradientUnits="userSpaceOnUse">
<stop stop-color="#004643"/>
<stop offset="1" stop-color="#E16162"/>
</linearGradient>
</defs>
</svg>
